<svg width="53" height="93" viewBox="0 0 53 93" fill="none" xmlns="http://www.w3.org/2000/svg">
  <g clip-path="url(#clip0_31_886)">
    <path
      d="M39.8501 0.442322C38.3814 1.30266 35.9424 3.74065 33.0293 7.27221L35.7053 12.289C37.5839 9.61998 39.4912 7.2194 41.4163 5.16867C41.5647 5.00585 41.6422 4.92884 41.6422 4.92884C41.5669 5.00805 41.4916 5.08946 41.4163 5.16867C40.7938 5.85078 38.9042 8.04013 36.0531 12.388C38.7978 12.2516 43.0157 11.6949 46.456 11.1096C47.4794 5.41511 45.4524 2.8077 45.4524 2.8077C45.4524 2.8077 42.8761 -1.33336 39.8501 0.442322Z"
      fill="url(#paint0_linear_31_886)" />
    <path
      d="M30.8629 42.5723C30.5217 42.6339 30.1695 42.6933 29.8084 42.7549C29.8062 42.7549 29.804 42.7571 29.8018 42.7571C29.9834 42.7307 30.1628 42.7043 30.3401 42.6735C30.5173 42.6427 30.6901 42.6097 30.8629 42.5723Z"
      fill="#BE202E" />
    <path opacity="0.35"
      d="M30.8629 42.5723C30.5217 42.6339 30.1695 42.6933 29.8084 42.7549C29.8062 42.7549 29.804 42.7571 29.8018 42.7571C29.9834 42.7307 30.1628 42.7043 30.3401 42.6735C30.5173 42.6427 30.6901 42.6097 30.8629 42.5723Z"
      fill="#BE202E" />
    <path
      d="M31.7581 38.187C31.7581 38.187 31.7559 38.187 31.7559 38.1892C31.7537 38.1892 31.7537 38.1914 31.7515 38.1914C31.8091 38.1848 31.8644 38.1738 31.9198 38.1672C32.148 38.1342 32.3717 38.0945 32.5888 38.0483C32.3164 38.0923 32.0394 38.1408 31.7581 38.187Z"
      fill="#BE202E" />
    <path opacity="0.35"
      d="M31.7581 38.187C31.7581 38.187 31.7559 38.187 31.7559 38.1892C31.7537 38.1892 31.7537 38.1914 31.7515 38.1914C31.8091 38.1848 31.8644 38.1738 31.9198 38.1672C32.148 38.1342 32.3717 38.0945 32.5888 38.0483C32.3164 38.0923 32.0394 38.1408 31.7581 38.187Z"
      fill="#BE202E" />
    <path
      d="M27.8171 25.251C28.6301 23.7416 29.4542 22.2652 30.2871 20.8283C31.1511 19.3365 32.0261 17.8887 32.91 16.4936C32.961 16.4122 33.0141 16.3286 33.0651 16.245C33.9379 14.872 34.8196 13.5518 35.7079 12.2888L33.0318 7.27197C32.8303 7.51621 32.6287 7.76485 32.4227 8.01789C31.6517 8.97284 30.8498 10.0004 30.028 11.0896C29.102 12.3174 28.1494 13.6288 27.1814 15.004C26.2886 16.2758 25.3826 17.607 24.4765 18.9844C23.7056 20.1572 22.9303 21.3652 22.1616 22.604C22.1328 22.6502 22.104 22.6964 22.0752 22.7426L25.5576 29.5747C26.3019 28.1115 27.0551 26.6681 27.8171 25.251Z"
      fill="url(#paint1_linear_31_886)" />
    <path
      d="M11.956 63.7464C11.4952 65.005 11.0322 66.2856 10.567 67.5948C10.5603 67.6146 10.5537 67.6322 10.5471 67.652C10.4806 67.8368 10.4164 68.0216 10.3499 68.2065C10.0375 69.0888 9.76507 69.8831 9.14258 71.6896C10.1682 72.1539 10.9923 73.3773 11.7721 74.7657C11.6901 73.3289 11.0898 71.9779 9.95336 70.9327C15.0108 71.1593 19.3682 69.8897 21.6211 66.2174C21.8227 65.8895 22.0066 65.5462 22.1727 65.1788C21.1493 66.4682 19.8799 67.0161 17.4897 66.8819C17.4852 66.8841 17.4786 66.8863 17.4742 66.8885C17.4786 66.8863 17.4852 66.8841 17.4897 66.8819C21.0075 65.3174 22.773 63.8168 24.3326 61.3282C24.7025 60.7385 25.0614 60.0938 25.4291 59.3787C22.3522 62.5164 18.7878 63.4097 15.0329 62.732L12.2174 63.0378C12.1287 63.2733 12.0423 63.5087 11.956 63.7464Z"
      fill="url(#paint2_linear_31_886)" />
    <path
      d="M13.2694 57.4821C13.8786 55.9198 14.5055 54.34 15.1479 52.7447C15.7638 51.2177 16.3973 49.6818 17.0442 48.1372C17.691 46.5925 18.3534 45.0457 19.0291 43.4966C19.7158 41.9212 20.418 40.3479 21.1313 38.7835C21.838 37.2366 22.558 35.6964 23.289 34.1715C23.5526 33.6215 23.8184 33.0736 24.0843 32.5279C24.5451 31.5839 25.0103 30.6488 25.4799 29.7224C25.5043 29.6718 25.5308 29.6234 25.5574 29.5728L22.075 22.7407C22.0174 22.8331 21.9621 22.9256 21.9045 23.018C21.0937 24.3338 20.2851 25.6804 19.4921 27.0556C18.6901 28.444 17.9037 29.8589 17.135 31.2935C16.4859 32.5037 15.8524 33.7249 15.2365 34.9571C15.1125 35.2079 14.9907 35.4543 14.8688 35.703C14.109 37.2542 13.4245 38.7527 12.8042 40.1939C12.102 41.8266 11.4839 43.3866 10.9434 44.8652C10.5867 45.8378 10.2633 46.7773 9.96645 47.6795C9.72277 48.4496 9.49017 49.2219 9.27086 49.9899C8.75027 51.8007 8.30279 53.6072 7.93506 55.4071L11.4352 62.27C11.8982 61.0422 12.3722 59.799 12.8596 58.5382C12.9947 58.1884 13.1321 57.8341 13.2694 57.4821Z"
      fill="url(#paint3_linear_31_886)" />
    <path
      d="M7.88853 55.6512C7.44991 57.8472 7.13755 60.0343 6.98027 62.2083C6.97584 62.2853 6.96698 62.3601 6.96255 62.4371C5.87043 60.6988 2.94629 59.0024 2.95294 59.0178C5.04635 62.0322 6.63469 65.0247 6.87172 67.9622C5.7508 68.191 4.21563 67.861 2.44121 67.2119C4.29095 68.8995 5.67992 69.366 6.22044 69.4914C4.52134 69.597 2.75135 70.7566 0.968067 72.0922C3.57542 71.0361 5.68213 70.618 7.19072 70.9569C4.79824 77.6855 2.39912 85.1139 0 93C0.735465 92.7844 1.17409 92.2937 1.41998 91.6292C1.84752 90.2011 4.68527 80.8321 9.13128 68.5167C9.25755 68.1668 9.38604 67.8148 9.51452 67.4605C9.54997 67.3615 9.58763 67.2625 9.62307 67.1657C10.0927 65.8741 10.5801 64.556 11.0829 63.2116C11.1981 62.9058 11.3133 62.5999 11.4285 62.2919C11.4307 62.2853 11.4329 62.2787 11.4352 62.2743L7.93948 55.4136C7.92397 55.4906 7.90403 55.5698 7.88853 55.6512Z"
      fill="url(#paint4_linear_31_886)" />
    <path
      d="M26.0981 30.1514C25.9984 30.3539 25.8987 30.5585 25.7968 30.7653C25.4955 31.3836 25.1898 32.0129 24.8797 32.6576C24.5452 33.3552 24.2085 34.0681 23.8673 34.7986C23.6945 35.166 23.524 35.5357 23.3489 35.912C22.8284 37.0363 22.3011 38.1981 21.765 39.3973C21.1071 40.8716 20.4359 42.403 19.7558 43.9938C19.1067 45.5099 18.4488 47.0787 17.782 48.7026C17.1484 50.2428 16.5082 51.8337 15.8592 53.473C15.281 54.9362 14.6984 56.4368 14.1091 57.9815C14.0803 58.0563 14.0515 58.1311 14.0249 58.2059C13.4401 59.7396 12.8508 61.315 12.2572 62.9301C12.2439 62.9675 12.2306 63.0049 12.2173 63.0401L15.0329 62.7342C14.9775 62.7232 14.9199 62.7166 14.8645 62.7056C18.2317 62.2898 22.7065 59.7902 25.5996 56.7053C26.9332 55.2838 28.1428 53.6072 29.2615 51.6445C30.0944 50.1834 30.8764 48.564 31.6207 46.7707C32.272 45.204 32.8967 43.5076 33.4993 41.6681C32.7261 42.0729 31.84 42.37 30.8631 42.5768C30.6925 42.612 30.5175 42.6472 30.3403 42.678C30.1631 42.7088 29.9836 42.7374 29.802 42.7617C29.8042 42.7617 29.8064 42.7595 29.8086 42.7595C32.9477 41.5603 34.9281 39.2433 36.368 36.407C35.5417 36.9659 34.1993 37.6986 32.591 38.0507C32.3717 38.0991 32.1479 38.1365 31.922 38.1695C31.8644 38.1783 31.809 38.1871 31.7536 38.1937C31.7558 38.1937 31.7558 38.1915 31.7581 38.1915C31.7581 38.1915 31.7603 38.1915 31.7603 38.1893C32.8502 37.7361 33.7695 37.23 34.567 36.6315C34.7376 36.5039 34.9037 36.3718 35.0632 36.2332C35.3069 36.0242 35.5373 35.8041 35.7588 35.5731C35.9006 35.4257 36.0379 35.2739 36.1709 35.1154C36.4832 34.7458 36.7756 34.3475 37.0503 33.914C37.1345 33.782 37.2165 33.6478 37.2984 33.5092C37.4025 33.3089 37.5022 33.1131 37.5997 32.9195C38.0383 32.0437 38.3883 31.2626 38.6674 30.5761C38.807 30.2329 38.9288 29.916 39.033 29.6212C39.0751 29.5045 39.1149 29.3901 39.1526 29.2801C39.2634 28.95 39.3542 28.6574 39.4251 28.4C39.5314 28.0149 39.5956 27.7091 39.6311 27.4868C39.5248 27.5704 39.4029 27.654 39.2656 27.7355C38.3174 28.2987 36.6914 28.8092 35.38 29.0491L37.9652 28.7674L35.38 29.0491C35.3601 29.0535 35.3401 29.0557 35.3202 29.0601C35.1895 29.0821 35.0566 29.1019 34.9237 29.1239C34.948 29.1129 34.968 29.1019 34.9923 29.0931L26.1468 30.0568C26.1313 30.0876 26.1158 30.1184 26.0981 30.1514Z"
      fill="url(#paint5_linear_31_886)" />
    <path
      d="M36.0556 12.3902C35.2691 13.5894 34.4096 14.9514 33.4859 16.4939C33.4371 16.5731 33.3884 16.6567 33.3396 16.7381C32.5422 18.0737 31.6937 19.5392 30.8032 21.1454C30.0323 22.5316 29.2303 24.0191 28.3974 25.6187C27.6708 27.0115 26.9198 28.4902 26.1489 30.0546L34.9944 29.0909C37.5708 27.9137 38.7227 26.8487 39.8414 25.3085C40.1383 24.8838 40.4373 24.4393 40.7342 23.9795C41.6424 22.5712 42.533 21.02 43.3305 19.4775C44.0992 17.9879 44.777 16.5115 45.2976 15.1803C45.6277 14.3331 45.8935 13.5454 46.0774 12.8545C46.2391 12.245 46.3654 11.6663 46.4628 11.114C43.0181 11.6971 38.8003 12.256 36.0556 12.3902Z"
      fill="url(#paint6_linear_31_886)" />
    <path
      d="M30.3401 42.6736C30.1628 42.7045 29.9834 42.7331 29.8018 42.7574C29.9834 42.7331 30.1628 42.7045 30.3401 42.6736Z"
      fill="#BE202E" />
    <path opacity="0.35"
      d="M30.3401 42.6736C30.1628 42.7045 29.9834 42.7331 29.8018 42.7574C29.9834 42.7331 30.1628 42.7045 30.3401 42.6736Z"
      fill="#BE202E" />
    <path
      d="M30.3401 42.6736C30.1628 42.7045 29.9834 42.7331 29.8018 42.7574C29.9834 42.7331 30.1628 42.7045 30.3401 42.6736Z"
      fill="url(#paint7_linear_31_886)" />
    <path
      d="M31.749 38.1915C31.8066 38.1849 31.862 38.1739 31.9174 38.1672C31.862 38.1739 31.8066 38.1827 31.749 38.1915Z"
      fill="#BE202E" />
    <path opacity="0.35"
      d="M31.749 38.1915C31.8066 38.1849 31.862 38.1739 31.9174 38.1672C31.862 38.1739 31.8066 38.1827 31.749 38.1915Z"
      fill="#BE202E" />
    <path
      d="M31.749 38.1915C31.8066 38.1849 31.862 38.1739 31.9174 38.1672C31.862 38.1739 31.8066 38.1827 31.749 38.1915Z"
      fill="url(#paint8_linear_31_886)" />
    <path
      d="M31.7554 38.1892C31.7554 38.1892 31.7576 38.1892 31.7576 38.187C31.7576 38.187 31.7554 38.187 31.7554 38.1892Z"
      fill="#BE202E" />
    <path opacity="0.35"
      d="M31.7554 38.1892C31.7554 38.1892 31.7576 38.1892 31.7576 38.187C31.7576 38.187 31.7554 38.187 31.7554 38.1892Z"
      fill="#BE202E" />
    <path
      d="M31.7554 38.1892C31.7554 38.1892 31.7576 38.1892 31.7576 38.187C31.7576 38.187 31.7554 38.187 31.7554 38.1892Z"
      fill="url(#paint9_linear_31_886)" />
    <path
      d="M49.1499 8.51538V8.77282H49.7569V10.4759H50.0382V8.77282H50.6496V8.51538H49.1499ZM52.6567 8.51538L51.9788 9.884L51.2965 8.51538H50.9576V10.4759H51.2167V8.92025L51.888 10.2691H52.0674L52.7386 8.92025V10.4759H52.9978V8.51538H52.6567Z"
      fill="#6D6E71" />
  </g>
  <defs>
    <linearGradient id="paint0_linear_31_886" x1="35.2975" y1="7.88671" x2="54.8821" y2="2.4047"
      gradientUnits="userSpaceOnUse">
      <stop stop-color="#F69923" />
      <stop offset="0.3123" stop-color="#F79A23" />
      <stop offset="0.8383" stop-color="#E97826" />
    </linearGradient>
    <linearGradient id="paint1_linear_31_886" x1="-7.61125" y1="95.2777" x2="31.8211" y2="10.1391"
      gradientUnits="userSpaceOnUse">
      <stop offset="0.3233" stop-color="#9E2064" />
      <stop offset="0.6302" stop-color="#C92037" />
      <stop offset="0.7514" stop-color="#CD2335" />
      <stop offset="1" stop-color="#E97826" />
    </linearGradient>
    <linearGradient id="paint2_linear_31_886" x1="5.77849" y1="88.9974" x2="29.2763" y2="38.263"
      gradientUnits="userSpaceOnUse">
      <stop stop-color="#282662" />
      <stop offset="0.0954839" stop-color="#662E8D" />
      <stop offset="0.7882" stop-color="#9F2064" />
      <stop offset="0.9487" stop-color="#CD2032" />
    </linearGradient>
    <linearGradient id="paint3_linear_31_886" x1="-6.16876" y1="90.1385" x2="33.2635" y2="4.99994"
      gradientUnits="userSpaceOnUse">
      <stop offset="0.3233" stop-color="#9E2064" />
      <stop offset="0.6302" stop-color="#C92037" />
      <stop offset="0.7514" stop-color="#CD2335" />
      <stop offset="1" stop-color="#E97826" />
    </linearGradient>
    <linearGradient id="paint4_linear_31_886" x1="-2.10391" y1="84.4799" x2="18.619" y2="39.7369"
      gradientUnits="userSpaceOnUse">
      <stop stop-color="#282662" />
      <stop offset="0.0954839" stop-color="#662E8D" />
      <stop offset="0.7882" stop-color="#9F2064" />
      <stop offset="0.9487" stop-color="#CD2032" />
    </linearGradient>
    <linearGradient id="paint5_linear_31_886" x1="2.68135" y1="94.2374" x2="42.1136" y2="9.09878"
      gradientUnits="userSpaceOnUse">
      <stop offset="0.3233" stop-color="#9E2064" />
      <stop offset="0.6302" stop-color="#C92037" />
      <stop offset="0.7514" stop-color="#CD2335" />
      <stop offset="1" stop-color="#E97826" />
    </linearGradient>
    <linearGradient id="paint6_linear_31_886" x1="-0.231646" y1="99.3026" x2="39.2006" y2="14.164"
      gradientUnits="userSpaceOnUse">
      <stop offset="0.3233" stop-color="#9E2064" />
      <stop offset="0.6302" stop-color="#C92037" />
      <stop offset="0.7514" stop-color="#CD2335" />
      <stop offset="1" stop-color="#E97826" />
    </linearGradient>
    <linearGradient id="paint7_linear_31_886" x1="5.31303" y1="95.5919" x2="44.9118" y2="10.3119"
      gradientUnits="userSpaceOnUse">
      <stop offset="0.3233" stop-color="#9E2064" />
      <stop offset="0.6302" stop-color="#C92037" />
      <stop offset="0.7514" stop-color="#CD2335" />
      <stop offset="1" stop-color="#E97826" />
    </linearGradient>
    <linearGradient id="paint8_linear_31_886" x1="5.0109" y1="95.48" x2="44.6273" y2="10.1831"
      gradientUnits="userSpaceOnUse">
      <stop offset="0.3233" stop-color="#9E2064" />
      <stop offset="0.6302" stop-color="#C92037" />
      <stop offset="0.7514" stop-color="#CD2335" />
      <stop offset="1" stop-color="#E97826" />
    </linearGradient>
    <linearGradient id="paint9_linear_31_886" x1="27.3947" y1="47.4956" x2="36.0463" y2="28.8441"
      gradientUnits="userSpaceOnUse">
      <stop offset="0.3233" stop-color="#9E2064" />
      <stop offset="0.6302" stop-color="#C92037" />
      <stop offset="0.7514" stop-color="#CD2335" />
      <stop offset="1" stop-color="#E97826" />
    </linearGradient>
    <clipPath id="clip0_31_886">
      <rect width="53" height="93" fill="white" />
    </clipPath>
  </defs>
</svg>

