<svg className="fill-current h-11 w-11" viewBox="0 0 26 23" fill="none"
  xmlns="http://www.w3.org/2000/svg">
  <path
    d="M1.12734 0.301943C1.02064 0.300615 0.914722 0.320098 0.815631 0.359278C0.71654 0.398458 0.626219 0.456569 0.549826 0.530292C0.473434 0.604014 0.412466 0.691905 0.370405 0.788944C0.328344 0.885983 0.306013 0.99027 0.304688 1.09585C0.305544 1.14289 0.308934 1.18986 0.314844 1.23654L3.76289 21.9434C3.80556 22.1974 3.93743 22.4284 4.13528 22.5957C4.33314 22.763 4.58429 22.8558 4.84453 22.8579H21.384C21.5784 22.8605 21.7674 22.7939 21.9165 22.6704C22.0655 22.5468 22.1649 22.3745 22.1965 22.1846L25.6445 1.24157C25.6783 1.03176 25.6267 0.817278 25.5011 0.644982C25.3755 0.472686 25.1861 0.356583 24.9742 0.322042C24.9271 0.316015 24.8796 0.31266 24.832 0.311993L1.12734 0.301943ZM15.6457 15.2656H10.3645L8.9375 7.87922H16.9254L15.6457 15.2656Z"
    fill="#AA0000" />
</svg>
