<svg width="66" height="54" viewBox="0 0 66 54" fill="none" xmlns="http://www.w3.org/2000/svg">
  <path
    d="M38.2248 20.8049C38.2248 18.2049 36.4043 16.7696 33.2067 16.7696H27.3251V25.146H32.2848C36.1126 25.1343 38.2248 23.5813 38.2248 20.8049ZM59.6392 19.299C58.5305 15.6637 58.3672 11.2049 58.4955 7.75783C58.6239 4.16961 55.8464 0.875496 52.1121 0.875496H13.7413C9.99521 0.875496 7.22943 4.18137 7.3578 7.75783C7.4745 11.2049 7.32279 15.6637 6.21414 19.299C5.09383 22.946 3.21497 25.2519 0.122429 25.546V28.899C3.2033 29.1931 5.09383 31.4989 6.21414 35.146C7.32279 38.7813 7.48617 43.2401 7.3578 46.6871C7.22943 50.2754 10.0069 53.5695 13.7413 53.5695H52.1004C55.8464 53.5695 58.6122 50.2636 58.4839 46.6871C58.3671 43.2401 58.5189 38.7813 59.6275 35.146C60.7478 31.4989 62.6267 29.1931 65.7076 28.899V25.546C62.6384 25.2519 60.7478 22.946 59.6392 19.299ZM34.3387 41.2401H22.9138V13.2049H34.2804C39.3335 13.2049 42.6477 15.9578 42.6477 20.1931C42.6477 23.1696 40.4188 25.8284 37.5713 26.2872V26.4401C41.4457 26.8637 44.0481 29.5695 44.0481 33.2989C44.0481 38.2519 40.3954 41.2401 34.3387 41.2401ZM33.1717 28.4519H27.3251V37.6754H33.4285C37.4196 37.6754 39.5319 36.0636 39.5319 33.0284C39.5319 30.0048 37.3612 28.4519 33.1717 28.4519Z"
    fill="#AA0000" />
</svg>

