<svg width="99" height="71" viewBox="0 0 99 71" fill="none" xmlns="http://www.w3.org/2000/svg">
  <path
    d="M54.1251 32.4604H43.9002V23.2951H54.1251V32.4604ZM54.1251 0.9375H43.9002V10.3033H54.1251V0.9375ZM66.2216 23.2797H55.9968V32.4449H66.2216V23.2797ZM42.044 12.1549H31.8191V21.4281H42.044V12.1549ZM54.1251 12.1549H43.9002V21.4281H54.1251V12.1549ZM96.9426 27.5846C94.7151 26.0879 89.5794 25.5479 85.6349 26.2885C85.1244 22.5854 83.0516 19.3605 79.2773 16.4598L77.1116 15.0248L75.673 17.185C72.8268 21.4744 72.0534 28.5412 75.1007 33.201C73.7549 33.9262 71.1098 34.9137 67.6138 34.852H0.371157C-0.974625 42.6902 1.26834 52.8738 7.17741 59.8635C12.9163 66.6371 21.5169 70.0779 32.7627 70.0779C57.1105 70.0779 75.1316 58.8914 83.5621 38.5705C86.8724 38.6322 94.019 38.5859 97.6851 31.5963C97.9171 31.2105 98.706 29.5596 98.9999 28.9578L96.9426 27.5846ZM17.8818 23.2797H7.67241V32.4449H17.8973V23.2797H17.8818ZM29.9629 23.2797H19.738V32.4449H29.9629V23.2797ZM42.044 23.2797H31.8191V32.4449H42.044V23.2797ZM29.9629 12.1549H19.738V21.4281H29.9629V12.1549Z"
    fill="#AA0000" />
</svg>

