<svg width="120" height="60" viewBox="0 0 120 60" fill="none" xmlns="http://www.w3.org/2000/svg">
  <path
    d="M40.0002 41.753V18.708H41.2502V22.333C41.3978 22.1723 41.5341 22.0015 41.6582 21.822C42.7022 19.656 44.9042 18.289 47.3082 18.316C50.1582 18.231 52.4742 19.286 53.8352 21.822C54.7012 23.3975 55.1778 25.1573 55.2252 26.9545C55.2725 28.7517 54.8891 30.5341 54.1072 32.153C52.8392 34.995 49.7072 36.408 46.3542 35.889C45.3107 35.8003 44.306 35.4516 43.4319 34.8748C42.5578 34.298 41.8421 33.5115 41.3502 32.587V41.752L40.0002 41.753ZM41.2502 26.86L41.5302 29.566C42.0242 32.646 43.8452 34.466 46.7042 34.808C48.0468 35.0287 49.4244 34.777 50.6022 34.0958C51.78 33.4145 52.6851 32.3459 53.1632 31.072C54.2752 28.422 54.1932 25.422 52.9432 22.834C52.4329 21.6921 51.5648 20.7473 50.4701 20.1424C49.3754 19.5374 48.1135 19.3053 46.8752 19.481C45.7128 19.5656 44.6056 20.01 43.7074 20.7527C42.8093 21.4953 42.1647 22.4992 41.8632 23.625C41.597 24.6903 41.3923 25.7701 41.2502 26.859V26.86ZM80.7482 29.992C80.5586 31.6146 79.7862 33.1131 78.5746 34.2088C77.3629 35.3046 75.7946 35.923 74.1612 35.949C68.9192 36.213 66.4592 32.732 66.0682 28.715C65.7963 26.5336 66.1504 24.3198 67.0892 22.332C67.7426 20.9684 68.8131 19.8482 70.1457 19.1337C71.4783 18.4192 73.0038 18.1475 74.5012 18.358C75.9247 18.479 77.274 19.0446 78.3583 19.9747C79.4427 20.9049 80.207 22.1525 80.5432 23.541C80.8095 24.8058 81.0054 26.0845 81.1302 27.371H67.3632C67.1082 31.013 69.0652 33.941 71.8392 34.647C75.2942 35.497 78.2472 34 79.3192 30.715C79.5572 29.872 79.9912 29.753 80.7572 29.992H80.7482ZM67.3532 26.205H79.6672C79.5902 22.325 77.1742 19.505 73.8972 19.473C70.1972 19.413 67.5142 22.12 67.3532 26.205ZM83.2932 30.077H84.5002C84.5445 30.9662 84.8333 31.826 85.3347 32.5617C85.8361 33.2974 86.5307 33.8806 87.3422 34.247C88.361 34.7055 89.4702 34.9284 90.5871 34.8989C91.704 34.8695 92.7999 34.5885 93.7932 34.077C94.3346 33.8332 94.7882 33.4291 95.0926 32.9192C95.397 32.4093 95.5375 31.8183 95.4952 31.226C95.5263 30.6548 95.3704 30.089 95.051 29.6143C94.7316 29.1397 94.2661 28.7822 93.7252 28.596C92.3972 28.102 90.9852 27.83 89.6322 27.396C88.2243 26.9952 86.8476 26.4918 85.5132 25.89C83.3332 24.826 83.1982 20.682 85.6662 19.37C86.9299 18.6569 88.352 18.2716 89.8029 18.2492C91.2537 18.2269 92.6871 18.5682 93.9722 19.242C95.5662 20.122 96.4472 21.899 96.1852 23.702H95.1502C95.1502 23.652 95.0562 23.608 95.0562 23.557C94.9282 20.257 92.1542 19.225 89.1762 19.515C88.2762 19.615 87.4232 19.887 86.6232 20.289C86.1423 20.5086 85.7415 20.8723 85.4764 21.3297C85.2112 21.787 85.0948 22.3155 85.1432 22.842C85.1442 23.3689 85.3084 23.8825 85.6131 24.3122C85.9179 24.742 86.3483 25.0668 86.8452 25.242C88.1452 25.719 89.5252 26.025 90.8702 26.399L94.1202 27.249C94.8589 27.4915 95.5066 27.9524 95.9776 28.571C96.4486 29.1895 96.7208 29.9364 96.7582 30.713C97.0182 32.458 96.1282 34.173 94.5542 34.968C91.7122 36.576 87.0312 36.151 84.9462 34.118C83.8792 33.045 83.2842 31.588 83.2962 30.076L83.2932 30.077ZM112.073 23.703H110.941C110.941 23.55 110.881 23.403 110.864 23.286C110.846 22.4375 110.537 21.6209 109.988 20.9733C109.44 20.3257 108.685 19.8864 107.851 19.729C106.278 19.2778 104.6 19.3586 103.077 19.959C102.475 20.1313 101.945 20.4938 101.566 20.9924C101.187 21.491 100.98 22.0988 100.975 22.725C100.954 23.3399 101.145 23.9433 101.517 24.4333C101.889 24.9232 102.419 25.2697 103.017 25.414L108.191 26.742C108.751 26.8762 109.302 27.0438 109.841 27.244C111.491 27.844 112.611 29.376 112.661 31.127C112.686 31.9841 112.451 32.8286 111.987 33.5496C111.523 34.2707 110.852 34.8345 110.061 35.167C108.86 35.7125 107.559 36.0011 106.24 36.0144C104.921 36.0276 103.614 35.7652 102.402 35.244C101.406 34.8143 100.565 34.0897 99.9928 33.1677C99.4207 32.2457 99.1448 31.1706 99.2022 30.087H100.308C100.724 32.092 102.101 33.762 103.99 34.552C105.879 35.342 108.036 35.148 109.754 34.036C110.27 33.7679 110.697 33.3578 110.987 32.8541C111.277 32.3504 111.416 31.7743 111.388 31.194C111.414 30.6224 111.252 30.058 110.928 29.5864C110.604 29.1149 110.135 28.7619 109.592 28.581C108.264 28.087 106.852 27.824 105.499 27.381C104.083 26.9863 102.698 26.4887 101.355 25.892C99.2272 24.845 99.0572 20.735 101.483 19.424C102.763 18.681 104.212 18.2818 105.692 18.2653C107.171 18.2489 108.63 18.6157 109.925 19.33C110.666 19.7723 111.263 20.4204 111.642 21.1956C112.021 21.9708 112.167 22.8395 112.061 23.696L112.073 23.703ZM37.9432 35.533C37.4976 35.7015 37.0057 35.701 36.5604 35.5317C36.1152 35.3624 35.7473 35.036 35.5262 34.614L31.1262 28.529L30.4882 27.679L25.3822 34.623C25.1741 35.0268 24.8261 35.3411 24.4032 35.5071C23.9803 35.6731 23.5114 35.6794 23.0842 35.525L29.6622 26.7L23.5422 18.726C24.4502 18.398 25.4622 18.754 25.9672 19.576L30.5272 25.736L35.1142 19.6C35.3238 19.2031 35.6721 18.8971 36.0926 18.7402C36.5132 18.5833 36.9768 18.5864 37.3952 18.749L35.0202 21.9L31.8032 26.087C31.7139 26.1667 31.6425 26.2644 31.5935 26.3737C31.5446 26.4829 31.5193 26.6013 31.5193 26.721C31.5193 26.8407 31.5446 26.9591 31.5935 27.0683C31.6425 27.1776 31.7139 27.2753 31.8032 27.355L37.9302 35.533H37.9432ZM65.8732 18.641V19.841C65.0125 19.7845 64.1495 19.9092 63.3399 20.2069C62.5303 20.5046 61.7922 20.9687 61.1731 21.5694C60.554 22.17 60.0677 22.8938 59.7456 23.6939C59.4235 24.4941 59.2728 25.353 59.3032 26.215C59.3032 29.0177 59.3032 31.8203 59.3032 34.623V35.576H58.0862V18.716H59.2862V22.171C60.7582 19.651 63.0302 18.716 65.8812 18.648L65.8732 18.641ZM7.33318 26.59L7.86918 23.943C9.34118 18.709 15.3412 16.531 19.4692 19.773C21.8862 21.671 22.4892 24.36 22.3712 27.39H8.75418C8.53418 32.802 12.4392 36.07 17.4342 34.402C19.0802 33.802 20.3192 32.434 20.7272 30.734C20.9912 29.884 21.4272 29.738 22.2252 29.984C22.0921 31.0201 21.7258 32.0126 21.1539 32.8868C20.582 33.7609 19.8193 34.4941 18.9232 35.031C17.4427 35.8406 15.7442 36.1614 14.0704 35.9475C12.3967 35.7336 10.8334 34.9959 9.60418 33.84C8.38818 32.473 7.65418 30.745 7.51118 28.92C7.51118 28.62 7.41118 28.34 7.34118 28.07C7.33451 27.5653 7.33118 27.072 7.33118 26.59H7.33318ZM8.77118 26.224H21.0852C21.0082 22.301 18.5322 19.518 15.2302 19.492C11.5542 19.442 8.92418 22.164 8.76218 26.207L8.77118 26.224Z"
    fill="#AA0000" />
</svg>

