<svg width="87" height="87" viewBox="0 0 87 87" fill="none" xmlns="http://www.w3.org/2000/svg">
  <g clip-path="url(#clip0_420_10)">
    <path
      d="M57.4637 32.5561H40.8322V0H57.4637C66.4392 0 73.74 7.30075 73.74 16.2762C73.74 25.2517 66.4392 32.5561 57.4637 32.5561ZM46.1646 27.2238H57.4637C63.4993 27.2238 68.4076 22.3119 68.4076 16.2799C68.4076 10.2479 63.4957 5.336 57.4637 5.336H46.1646V27.2238ZM46.1646 32.5561H29.5367C20.5612 32.5561 13.2605 25.2554 13.2605 16.2799C13.2605 7.30438 20.5612 0 29.5367 0H46.1682V32.5561H46.1646ZM29.5367 5.33237C23.5011 5.33237 18.5928 10.2442 18.5928 16.2762C18.5928 22.3082 23.5011 27.2238 29.5367 27.2238H40.8358V5.33237H29.5367ZM46.1646 59.7762H29.5367C20.5612 59.7762 13.2605 52.4755 13.2605 43.5C13.2605 34.5245 20.5612 27.2238 29.5367 27.2238H46.1682V59.7762H46.1646ZM29.5367 32.5561C23.5011 32.5561 18.5928 37.468 18.5928 43.5C18.5928 49.532 23.5047 54.4439 29.5367 54.4439H40.8358V32.5561H29.5367ZM29.6237 87C20.6011 87 13.2568 79.6993 13.2568 70.7238C13.2568 61.7483 20.5576 54.4475 29.5331 54.4475H46.1646V70.5461C46.1646 79.6195 38.7442 87 29.6237 87ZM29.5367 59.7762C26.6354 59.7801 23.854 60.9343 21.8025 62.9859C19.7509 65.0374 18.5967 67.8188 18.5928 70.7201C18.5928 76.7558 23.541 81.664 29.6273 81.664C35.808 81.664 40.8395 76.676 40.8395 70.5425V59.7762H29.5367ZM57.4637 59.7762H57.1085C48.133 59.7762 40.8322 52.4755 40.8322 43.5C40.8322 34.5245 48.133 27.2238 57.1085 27.2238H57.4637C66.4392 27.2238 73.74 34.5245 73.74 43.5C73.74 52.4755 66.4392 59.7762 57.4637 59.7762ZM57.1121 32.5561C51.0765 32.5561 46.1682 37.468 46.1682 43.5C46.1682 49.532 51.0801 54.4439 57.1121 54.4439H57.4673C63.503 54.4439 68.4112 49.532 68.4112 43.5C68.4112 37.468 63.4957 32.5561 57.4637 32.5561H57.1121Z"
      fill="#AA0000" />
  </g>
  <defs>
    <clipPath id="clip0_420_10">
      <rect width="87" height="87" fill="white" />
    </clipPath>
  </defs>
</svg>

