<svg width="26" height="26" viewBox="0 0 26 26" fill="none" xmlns="http://www.w3.org/2000/svg">
  <path
    d="M22.6562 0.0983887H2.71875C1.21777 0.0983887 0 1.30335 0 2.78855V22.5164C0 24.0016 1.21777 25.2065 2.71875 25.2065H22.6562C24.1572 25.2065 25.375 24.0016 25.375 22.5164V2.78855C25.375 1.30335 24.1572 0.0983887 22.6562 0.0983887ZM15.7064 21.6028C15.2307 21.6869 15.0551 21.3955 15.0551 21.1545C15.0551 20.8518 15.0664 19.305 15.0664 18.0552C15.0664 17.1809 14.7719 16.626 14.4264 16.3346C16.5221 16.1048 18.7311 15.819 18.7311 12.2377C18.7311 11.2177 18.3629 10.7077 17.7625 10.052C17.8588 9.81098 18.1816 8.81898 17.6662 7.52995C16.8789 7.28896 15.0777 8.53315 15.0777 8.53315C14.3301 8.32579 13.5201 8.2193 12.7215 8.2193C11.9229 8.2193 11.1129 8.32579 10.3652 8.53315C10.3652 8.53315 8.56406 7.28896 7.77676 7.52995C7.26133 8.81338 7.57852 9.80537 7.68047 10.052C7.08008 10.7077 6.79688 11.2177 6.79688 12.2377C6.79688 15.8022 8.90957 16.1048 11.0053 16.3346C10.7334 16.5756 10.4898 16.9903 10.4049 17.5844C9.8668 17.8254 8.49043 18.2401 7.66914 16.8054C7.15371 15.9199 6.2248 15.847 6.2248 15.847C5.30723 15.8358 6.1625 16.4187 6.1625 16.4187C6.77422 16.6989 7.20469 17.775 7.20469 17.775C7.7541 19.4395 10.3822 18.879 10.3822 18.879C10.3822 19.6581 10.3936 20.9247 10.3936 21.1545C10.3936 21.3955 10.2236 21.6869 9.74219 21.6028C6.00391 20.3642 3.38711 16.8446 3.38711 12.7309C3.38711 7.58599 7.36328 3.67966 12.5629 3.67966C17.7625 3.67966 21.9766 7.58599 21.9766 12.7309C21.9822 16.8446 19.4447 20.3698 15.7064 21.6028ZM10.15 18.1785C10.0424 18.2009 9.94043 18.1561 9.9291 18.0832C9.91777 17.9991 9.99141 17.9263 10.099 17.9039C10.2066 17.8927 10.3086 17.9375 10.3199 18.0104C10.3369 18.0832 10.2633 18.1561 10.15 18.1785ZM9.61191 18.128C9.61191 18.2009 9.52695 18.2626 9.41367 18.2626C9.28906 18.2738 9.2041 18.2121 9.2041 18.128C9.2041 18.0552 9.28906 17.9935 9.40234 17.9935C9.50996 17.9823 9.61191 18.044 9.61191 18.128ZM8.83594 18.0664C8.81328 18.1393 8.7 18.1729 8.60371 18.1393C8.49609 18.1168 8.42246 18.0328 8.44512 17.9599C8.46777 17.8871 8.58105 17.8534 8.67734 17.8758C8.79062 17.9095 8.86426 17.9935 8.83594 18.0664ZM8.13926 17.7638C8.08828 17.8254 7.98066 17.8142 7.8957 17.7301C7.81074 17.6573 7.78809 17.5508 7.84473 17.5003C7.8957 17.4387 8.00332 17.4499 8.08828 17.534C8.16191 17.6068 8.19023 17.7189 8.13926 17.7638ZM7.62383 17.2537C7.57285 17.2874 7.47656 17.2537 7.41426 17.1697C7.35195 17.0856 7.35195 16.9903 7.41426 16.9511C7.47656 16.9007 7.57285 16.9399 7.62383 17.024C7.68613 17.108 7.68613 17.2089 7.62383 17.2537ZM7.25566 16.7101C7.20469 16.7605 7.11973 16.7325 7.05742 16.6765C6.99512 16.6036 6.98379 16.5196 7.03477 16.4803C7.08574 16.4299 7.1707 16.4579 7.23301 16.514C7.29531 16.5868 7.30664 16.6709 7.25566 16.7101ZM6.87617 16.2954C6.85352 16.3458 6.77988 16.357 6.71758 16.3178C6.64395 16.2842 6.60996 16.2225 6.63262 16.1721C6.65527 16.1385 6.71758 16.1216 6.79121 16.1497C6.86484 16.1889 6.89883 16.2505 6.87617 16.2954Z"
    fill="#AA0000" />
</svg>

