<svg width="81" height="83" viewBox="0 0 81 83" fill="none" xmlns="http://www.w3.org/2000/svg">
  <path
    d="M79.4633 37.8852L44.1162 2.34724C43.1375 1.36483 41.8105 0.812988 40.4269 0.812988C39.0434 0.812988 37.7164 1.36483 36.7376 2.34724L29.3862 9.7273L38.7012 19.0854C43.5937 17.4252 48.2259 22.1315 46.5462 27.0195L55.5249 36.0398C61.7138 33.8964 66.5865 41.6706 61.938 46.337C57.1486 51.1486 49.2438 45.8157 51.813 39.5545L43.4292 31.1464V53.2702C48.0035 55.548 47.4539 60.8718 45.0709 63.2604C43.9066 64.4294 42.3279 65.0861 40.6819 65.0861C39.0358 65.0861 37.4571 64.4294 36.2929 63.2604C33.1161 60.0635 34.2914 54.7397 38.3269 53.0885V30.7468C34.5662 29.201 33.8791 25.1631 34.9567 22.5729L25.7827 13.3456L1.52793 37.7036C0.549604 38.6867 0 40.0198 0 41.41C0 42.8001 0.549604 44.1333 1.52793 45.1163L36.8931 80.6452C37.8716 81.6275 39.1982 82.1793 40.5815 82.1793C41.9648 82.1793 43.2915 81.6275 44.2699 80.6452L79.4724 45.2798C80.4507 44.2968 81.0003 42.9636 81.0003 41.5734C81.0003 40.1833 80.4507 38.8501 79.4724 37.8671L79.4633 37.8852Z"
    fill="#AA0000" />
</svg>

