<svg width="82" height="77" viewBox="0 0 82 77" fill="none" xmlns="http://www.w3.org/2000/svg">
  <path
    d="M20.9861 14.2289C16.8961 20.2156 17.4055 28.0038 20.5216 34.3574L20.7507 34.8103L20.9055 35.0968C20.9342 35.1525 20.9675 35.2075 20.9969 35.2617C21.0511 35.3623 21.1053 35.4591 21.1517 35.5582L21.4498 36.0792L21.6201 36.3656L21.9662 36.9168L22.121 37.1491C22.2758 37.3968 22.4508 37.643 22.6227 37.8861C22.6265 37.8923 22.6319 37.8993 22.6366 37.9055C22.6637 37.9442 22.6939 37.9829 22.714 38.0216C22.8627 38.2306 23.0237 38.4366 23.1785 38.6409L23.3504 38.8639L23.7723 39.3919L23.9333 39.5885C24.1252 39.8202 24.3214 40.0484 24.5217 40.2729L24.5341 40.2853C24.5418 40.2953 24.5496 40.3008 24.5573 40.3108C24.7514 40.5297 24.9507 40.744 25.155 40.9534L25.347 41.15L25.8246 41.6269L26.0197 41.8158C26.2344 42.0215 26.4525 42.2236 26.6739 42.422L26.7978 42.5304L27.3916 43.0413L27.6377 43.2411L28.1332 43.6282L28.398 43.8333L29.1551 44.3868C29.1745 44.4 29.1915 44.4139 29.2109 44.4271C29.3889 44.551 29.5693 44.671 29.7505 44.791L29.9843 44.9497L30.8297 45.4761L31.0635 45.61L31.6983 45.9723C31.8144 46.0358 31.9329 46.0962 32.049 46.1566L32.5027 46.3889L32.6072 46.4399L32.793 46.5313L33.5129 46.8704L33.6655 46.9478C33.9431 47.0712 34.2228 47.1897 34.5047 47.3032L34.709 47.3852L35.501 47.684L35.6001 47.7197C35.8926 47.8228 36.1868 47.9209 36.4827 48.0138L36.6956 48.0789C37.0052 48.1718 37.2956 48.2825 37.6068 48.3421C57.3853 52.0241 63.132 36.2449 63.132 36.2449C58.3066 42.6473 49.7419 44.335 41.6271 42.4561C41.3197 42.3786 41.0217 42.2881 40.7213 42.1975L40.4952 42.1201C40.2026 42.0287 39.9115 41.9319 39.6235 41.8313L39.5035 41.7872C39.2458 41.6943 38.9895 41.5975 38.7347 41.4969L38.518 41.4101C38.2392 41.2981 37.9625 41.1809 37.6881 41.0587L37.5224 40.9844L36.8225 40.6515L36.6213 40.5524C36.4394 40.461 36.2588 40.3673 36.0793 40.2713L35.7178 40.0778C35.4993 39.9581 35.2831 39.8344 35.069 39.707L34.8499 39.5831C34.565 39.4128 34.2833 39.2347 34.0045 39.0567C33.9271 39.0063 33.8528 38.9529 33.7762 38.9018L33.1746 38.4946L32.9811 38.3553L32.4121 37.9372L32.1597 37.7437L31.6464 37.3349L31.4173 37.1491L30.7786 36.6072C30.7569 36.5878 30.7321 36.5685 30.7012 36.5476C30.4735 36.344 30.2498 36.1349 30.0292 35.9251L29.8403 35.7393L29.3572 35.2578L29.1683 35.0643C28.9671 34.8552 28.7696 34.6425 28.576 34.4263C28.5668 34.4155 28.5559 34.4054 28.5466 34.3954C28.342 34.1669 28.1417 33.9346 27.9459 33.6986L27.7887 33.5082L27.3552 32.9639L27.1965 32.7626L26.6971 32.0852C22.1914 25.8261 20.5812 17.194 24.1733 10.1042L20.9861 14.2289ZM33.6825 9.18443C30.7252 13.5198 30.8854 19.3215 33.1924 23.9061C33.5783 24.6759 34.0154 25.419 34.5008 26.1303C34.9436 26.7767 35.4352 27.547 36.0236 28.0657C36.2365 28.298 36.4595 28.5302 36.6871 28.7671C36.7443 28.8267 36.8032 28.8833 36.862 28.9429C37.0829 29.1622 37.3091 29.3762 37.5402 29.5847C37.5495 29.5924 37.558 29.6017 37.5681 29.6094C37.8283 29.8407 38.0945 30.0653 38.3662 30.283L38.5458 30.4254C38.8165 30.6381 39.0927 30.8436 39.3742 31.0417C39.3818 31.0478 39.3895 31.0538 39.3974 31.0595C39.5213 31.1469 39.649 31.2298 39.7752 31.3134C39.8356 31.3536 39.8929 31.3962 39.9533 31.4342C40.1551 31.5663 40.3598 31.6941 40.5672 31.8174L40.6539 31.8685L41.1958 32.1781C41.2593 32.2145 41.3244 32.2463 41.3894 32.2803L41.7765 32.4801C41.7958 32.4901 41.8152 32.4979 41.8338 32.5072C42.0947 32.6388 42.3571 32.7626 42.6257 32.8826C42.683 32.9082 42.7419 32.9314 42.8007 32.9562C43.0151 33.0491 43.2319 33.1389 43.451 33.2248L43.7297 33.3286C43.9273 33.4021 44.126 33.4725 44.3258 33.5399L44.5952 33.6274C44.8794 33.718 45.1604 33.831 45.4569 33.8813C60.7274 36.4578 64.2538 24.4829 64.2538 24.4829C61.0758 29.1434 54.9219 31.3684 48.3538 29.6327C48.0633 29.5555 47.7749 29.4703 47.4891 29.3772C47.4016 29.3501 47.3157 29.3214 47.229 29.2998C47.0261 29.2328 46.8246 29.1621 46.6243 29.0876L46.3511 28.9839C46.132 28.9065 45.9152 28.8097 45.7007 28.7168C45.6419 28.6913 45.5831 28.668 45.525 28.6409C45.2556 28.5231 44.9897 28.3973 44.7276 28.2639C44.5929 28.1966 44.4605 28.1261 44.3281 28.0564L44.0974 27.9357C43.9271 27.8421 43.7586 27.7453 43.5919 27.6454L43.4711 27.5679C43.265 27.4447 43.0611 27.3177 42.8595 27.187C42.7976 27.1468 42.7372 27.1096 42.6753 27.0616L42.2789 26.7945C41.9989 26.5963 41.7237 26.3914 41.4536 26.1798L41.2678 26.0312C38.3933 23.7195 36.1142 20.5609 35.0311 16.9788C33.8954 13.2628 34.1408 9.09386 36.1149 5.70995L33.6825 9.18443ZM44.3583 5.41576C42.6149 8.02937 42.4438 11.2747 43.6616 14.1608C44.9374 17.2242 47.5518 19.628 50.6028 20.7668C50.7282 20.8148 50.8544 20.8574 50.9899 20.9008L51.1571 20.955C51.3367 21.0122 51.5156 21.0788 51.7006 21.1144C60.1329 22.7735 62.4198 16.7078 63.0283 15.8152C61.0247 18.7532 57.6578 19.4585 53.5269 18.4373C53.2017 18.3561 52.8417 18.2361 52.5204 18.123C52.1162 17.9768 51.72 17.809 51.3336 17.6206C50.5984 17.2601 49.9013 16.8267 49.2527 16.327C45.5482 13.4703 43.2513 8.02163 45.6636 3.58407"
    fill="#AA0000" />
  <path
    d="M25.7364 60.8961L25.165 62.9213L25.7364 60.8969V60.8961ZM28.6751 65.2918L28.0457 65.288L28.6751 65.2918ZM28.5203 68.3158L24.7485 68.3297L28.5203 68.3158ZM29.31 65.2965L28.6798 65.2926L29.31 65.2965ZM28.8594 68.0587L29.5174 65.5527L28.8594 68.0587ZM42.7403 56.5181L41.5171 62.2726L42.7403 56.5181ZM39.5933 56.5181L38.6643 60.8171L39.5933 56.5181Z"
    fill="#AA0000" />
  <path
    d="M42.5235 56.2588H39.9068C39.7613 56.2588 39.6173 56.3749 39.5863 56.5174L37.7283 65.1161C37.6974 65.2578 37.5534 65.3739 37.4086 65.3739H35.556C33.7228 65.3739 33.9349 64.1066 34.3173 62.3701L34.3289 62.3175L34.5511 61.133L34.6471 60.6452L35.4925 56.5174C35.5219 56.3749 35.4267 56.258 35.2812 56.258H32.5948C32.5207 56.2606 32.4495 56.2872 32.392 56.3338C32.3344 56.3805 32.2936 56.4447 32.2758 56.5166L31.0658 62.2563C30.4 65.2942 30.5765 68.1911 34.1934 68.2817L34.298 68.284H39.9742C40.1197 68.284 40.263 68.1679 40.2939 68.0254L42.7419 56.5166C42.7728 56.3741 42.6776 56.258 42.5328 56.258L42.5235 56.2588ZM52.9648 65.4041C53.1104 65.4041 53.1971 65.5202 53.1762 65.6627L52.9222 66.9052L52.9648 65.4041ZM52.6683 68.1485L52.9222 66.9052L52.6683 68.1485ZM52.3493 68.4102L47.5263 68.4334L52.3493 68.4102Z"
    fill="#AA0000" />
  <path
    d="M45.964 63.8046C45.9617 63.6684 46.1165 63.4346 46.262 63.4346L45.9353 63.4292C45.7805 64.9109 45.964 63.8046 45.964 63.8046ZM47.7647 68.4326H47.7144H47.7647ZM52.9648 65.4041C53.1104 65.4041 53.1971 65.5202 53.1762 65.6627L52.8804 67.1073L52.9648 65.4041ZM49.0034 68.4365H48.9925H49.0034ZM48.3608 68.4319H48.3237H48.3608ZM48.1649 68.4326H48.103H48.1649ZM47.9737 68.4326H47.9195H47.9737ZM48.3314 68.4319H48.1727H48.3314Z"
    fill="#AA0000" />
  <path
    d="M48.9933 68.4365L48.3616 68.4389L48.9933 68.4365ZM52.3509 68.4172L49.0026 68.4373L52.3509 68.4172ZM52.6606 68.1485L52.8735 67.108L52.6606 68.1493V68.1485ZM48.096 68.4327H47.9737H48.1115H48.096ZM47.7128 68.4327H47.527H47.7128ZM47.9118 68.4327H47.757H47.9118ZM9.62121 63.8356L10.0276 62.0333L9.56314 64.0926L9.50895 64.3512L9.62198 63.8341L9.62121 63.8356ZM14.4877 56.2294H11.6132C11.5389 56.2323 11.4675 56.2589 11.4094 56.3053C11.3513 56.3516 11.3096 56.4154 11.2903 56.4872L10.7453 58.8871C10.7361 58.9182 10.7346 58.951 10.7408 58.9828C10.7471 59.0145 10.7609 59.0444 10.7811 59.0697C10.8013 59.095 10.8273 59.115 10.857 59.1281C10.8866 59.1412 10.9189 59.147 10.9512 59.1449H13.8482C13.9937 59.1449 14.1377 59.0288 14.1687 58.8871L14.6951 56.4818C14.7261 56.3401 14.6332 56.224 14.4861 56.224L14.4877 56.2294ZM13.8621 60.2303L13.0105 64.1306L13.8621 60.2303ZM5.5119 73.1551L7.88241 73.1737C7.18256 73.1737 6.02672 73.1605 5.51112 73.1543L5.5119 73.1551Z"
    fill="#AA0000" />
  <path
    d="M10.4263 60.2303L10.0191 62.0326L10.4263 60.2303ZM13.6546 59.9725H10.7569C10.6826 59.9754 10.6112 60.002 10.5532 60.0484C10.4951 60.0948 10.4534 60.1585 10.4341 60.2303L9.6212 63.8348L9.50817 64.352L8.734 68.0316C8.69564 68.2033 8.64914 68.373 8.59465 68.5403C8.59465 68.5403 8.05273 70.1505 7.14385 70.1327L6.24194 70.1157C6.16796 70.1178 6.09656 70.1434 6.0381 70.1887C5.97964 70.2341 5.93715 70.2969 5.91678 70.3681L5.3168 72.8942C5.30732 72.9251 5.30541 72.9578 5.31124 72.9896C5.31706 73.0213 5.33045 73.0512 5.35026 73.0768C5.37008 73.1023 5.39574 73.1226 5.42509 73.1361C5.45443 73.1496 5.48659 73.1559 5.51886 73.1543L7.89015 73.1737C10.1631 73.1737 11.3608 71.9141 12.1295 68.291L13.8714 60.2396C13.9024 60.0979 13.8079 59.9818 13.6624 59.9818L13.6546 59.9725ZM54.8112 68.2856C54.6657 68.2856 54.579 68.1694 54.6022 68.027L56.7815 57.8187L54.8112 68.2856ZM57.8398 68.0262L58.7223 63.6692L57.8398 68.0262Z"
    fill="#AA0000" />
  <path
    d="M54.6339 68.1563C54.6161 68.0851 54.6262 67.9109 54.6571 67.7692L55.6914 62.9229L54.6014 68.027C54.5704 68.1694 54.6649 68.2856 54.8104 68.2856H55.0752C54.9297 68.2856 54.6509 68.2275 54.6339 68.1563ZM57.6687 68.2275C57.5897 68.2585 57.4055 68.2856 57.2599 68.2856H57.5247C57.5986 68.2826 57.6695 68.2558 57.7268 68.209C57.784 68.1622 57.8245 68.098 57.8421 68.0262L57.8947 67.7676C57.8661 67.9101 57.7399 68.1958 57.6625 68.2275H57.6687ZM58.2803 65.8477L58.6697 63.9246L58.2803 65.8477ZM66.8798 58.5023L66.9998 58.9978C67.0331 59.1395 66.9409 59.2548 66.7962 59.2556"
    fill="#AA0000" />
  <path
    d="M57.8924 67.7676L58.2795 65.8477L57.8924 67.7676ZM66.7614 57.9852L66.8798 58.493L66.7614 57.9852ZM58.6697 63.9246L58.7765 63.4106L59.1923 61.4635L58.7216 63.6684L58.6697 63.9239V63.9246ZM56.8171 57.6507L56.7265 58.0765L55.6922 62.9229L56.7823 57.8187L56.8171 57.6515V57.6507Z"
    fill="#AA0000" />
  <path
    d="M67.0006 58.9978L66.8806 58.5023L66.7025 57.7282C66.4671 56.8146 65.7766 56.2859 64.2762 56.2859L57.3706 56.2812C57.2966 56.2838 57.2254 56.3104 57.1678 56.3571C57.1102 56.4037 57.0695 56.4679 57.0517 56.5398L56.9448 57.0453L56.79 57.8095L54.6657 67.7599C54.6347 67.9023 54.6246 68.0696 54.6424 68.147C54.6602 68.2244 54.9389 68.2763 55.0837 68.2763H57.2669C57.4124 68.2763 57.5959 68.2499 57.6756 68.2182C57.7554 68.1865 57.8723 67.9085 57.9079 67.7584L58.7363 63.6599L59.6227 59.5072C59.6537 59.3655 59.7969 59.2502 59.9417 59.2494L66.8109 59.2463C66.9557 59.2463 67.0478 59.1302 67.0145 58.9885L67.0006 58.9978ZM75.8439 54.513L75.3152 54.5154H73.1165C73.036 54.5201 72.9575 54.5421 72.8862 54.5798C72.8149 54.6174 72.7525 54.6699 72.7031 54.7337L67.8413 61.8561C67.7592 61.9761 67.6656 61.9582 67.6323 61.8173L67.2746 60.2481C67.2553 60.1763 67.2136 60.1126 67.1555 60.0662C67.0975 60.0198 67.0261 59.9932 66.9518 59.9903H63.8264C63.6809 59.9903 63.5942 60.1041 63.6345 60.2442L65.028 65.1509C65.0682 65.2903 65.0705 65.5202 65.0357 65.6619L64.4164 68.0363C64.4058 68.0667 64.403 68.0993 64.4083 68.1311C64.4135 68.1629 64.4266 68.1929 64.4464 68.2184C64.4661 68.2438 64.4919 68.2639 64.5214 68.2769C64.5509 68.2898 64.5832 68.2952 64.6153 68.2925H67.712C67.8576 68.2925 68.0062 68.1764 68.0418 68.037L68.6612 65.6627C68.7097 65.4955 68.7856 65.3375 68.8857 65.1951L76.7869 54.7182C76.8744 54.6021 76.8271 54.5076 76.6816 54.5092L75.8532 54.5146L75.8439 54.513ZM51.0116 60.6576C50.993 60.8125 50.8474 60.9286 50.7019 60.9286H46.7381C46.6011 60.9286 46.5314 60.8357 46.5523 60.7196L46.5554 60.6987L46.5732 60.6313C46.9603 59.6249 47.7229 58.9645 49.1714 58.9645C50.8025 58.9645 51.1207 59.7619 51.01 60.6576H51.0116ZM49.8488 56.0838C44.7624 56.0838 43.5571 59.1712 42.8812 62.2873C42.2046 65.4637 42.2634 68.4342 47.5262 68.4342H48.3608L49.0034 68.4319L52.3524 68.4117C52.4259 68.4083 52.4963 68.3812 52.5531 68.3345C52.6099 68.2877 52.65 68.2239 52.6675 68.1524L53.1762 65.6658C53.2056 65.5233 53.1104 65.4072 52.9648 65.4072H48.2331C46.3518 65.4072 45.7921 64.9071 45.998 63.4369H53.5617C53.6856 63.4346 53.7978 63.3595 53.8419 63.2418C53.8497 63.2209 53.8574 63.1985 53.8605 63.176C54.9831 58.9413 54.661 56.0869 49.8503 56.0869L49.8488 56.0838ZM25.8076 60.6406L25.7364 60.8938C25.7364 60.8945 25.165 62.919 25.165 62.919L24.5937 64.9427C24.57 65.014 24.5251 65.0765 24.4651 65.1218C24.4052 65.1672 24.3328 65.1932 24.2577 65.1966H21.2338C18.9407 65.1966 18.3825 63.4029 18.9407 60.7575C19.4981 58.0518 20.5935 56.3695 22.8503 56.1992C25.9346 55.9669 26.5508 58.1362 25.8076 60.6398V60.6406ZM27.8808 65.0418C27.8808 65.0418 29.3053 61.5812 29.6305 59.5815C30.0717 56.9052 28.7324 53.0243 23.5571 53.0243C18.4112 53.0243 16.1769 56.7295 15.3245 60.766C14.4729 64.8227 15.5893 68.3808 20.705 68.3529L28.5133 68.3243C28.5882 68.3207 28.6601 68.2941 28.7193 68.2481C28.7785 68.2021 28.822 68.1389 28.8439 68.0672L29.502 65.5605C29.5126 65.5301 29.5155 65.4976 29.5104 65.4658C29.5053 65.434 29.4924 65.404 29.4728 65.3785C29.4532 65.353 29.4276 65.3328 29.3982 65.3197C29.3688 65.3066 29.3366 65.301 29.3045 65.3034L28.045 65.2957C27.9211 65.2949 27.8514 65.2152 27.8654 65.1099C27.8684 65.0905 27.8731 65.0712 27.8808 65.0511V65.0418Z"
    fill="#AA0000" />
  <path
    d="M53.3542 62.7262C53.3542 62.8222 53.2768 62.8996 53.1808 62.8996C53.0848 62.8996 53.0074 62.8222 53.0074 62.7262C53.0074 62.6302 53.0848 62.5528 53.1808 62.5528C53.2768 62.5528 53.3542 62.6302 53.3542 62.7262Z"
    fill="#AA0000" />
</svg>

