<svg width="46" height="47" viewBox="0 0 46 47" fill="none" xmlns="http://www.w3.org/2000/svg">
  <path
    d="M0.29628 0.286812V46.3019H45.2227V0.286812H0.29628ZM24.7451 36.1745C24.7451 40.6527 22.1778 42.6967 18.4373 42.6967C15.0578 42.6967 13.1023 40.9095 12.0995 38.7423L15.5392 36.6161C16.201 37.8179 16.8027 38.8347 18.2568 38.8347C19.6407 38.8347 20.5232 38.2801 20.5232 36.1128V21.4147H24.7451V36.1745ZM34.7332 42.6967C30.8121 42.6967 28.275 40.7863 27.0415 38.2801L30.4812 36.2464C31.3837 37.7562 32.5671 38.8758 34.6429 38.8758C36.3878 38.8758 37.511 37.9822 37.511 36.7394C37.511 35.2603 36.3677 34.7365 34.4323 33.8634L33.3793 33.4012C30.3308 32.0763 28.3151 30.402 28.3151 26.879C28.3151 23.6333 30.7319 21.1682 34.4925 21.1682C37.18 21.1682 39.1054 22.1234 40.4893 24.6296L37.2001 26.7866C36.4781 25.4616 35.6959 24.9378 34.4824 24.9378C33.249 24.9378 32.4668 25.7389 32.4668 26.7866C32.4668 28.0807 33.249 28.6046 35.0641 29.416L36.117 29.8782C39.7071 31.4497 41.7228 33.0623 41.7228 36.6778C41.7228 40.5603 38.7344 42.6967 34.7332 42.6967Z"
    fill="#AA0000" />
</svg>

