<svg width="69" height="71" viewBox="0 0 69 71" fill="none" xmlns="http://www.w3.org/2000/svg">
    <g clip-path="url(#clip0_2104_1098)">
        <path fill-rule="evenodd" clip-rule="evenodd" d="M67.819 15.7269C67.844 15.8195 67.8568 15.9151 67.8571 16.0111V30.933C67.8571 31.1245 67.8065 31.3127 67.7105 31.4784C67.6145 31.6441 67.4765 31.7816 67.3104 31.8769L54.7861 39.0876V53.3798C54.7861 53.7688 54.5794 54.1278 54.2421 54.3237L28.0988 69.3734C28.039 69.4074 27.9737 69.4292 27.9084 69.4523C27.884 69.4605 27.8608 69.4754 27.835 69.4822C27.6522 69.5304 27.4601 69.5304 27.2774 69.4822C27.2475 69.4741 27.2203 69.4577 27.1917 69.4469C27.1319 69.4251 27.0693 69.4061 27.0122 69.3734L0.874357 54.3237C0.708311 54.2283 0.570343 54.0908 0.47436 53.9251C0.378376 53.7594 0.327768 53.5713 0.327637 53.3798L0.327637 8.61407C0.327637 8.51615 0.341237 8.42095 0.365717 8.32847C0.373877 8.29719 0.392917 8.26863 0.403797 8.23735C0.424197 8.18023 0.443237 8.12175 0.473157 8.06871C0.493557 8.03335 0.523477 8.00479 0.547957 7.97215C0.579237 7.92863 0.607797 7.88375 0.644517 7.84567C0.675797 7.81439 0.716597 7.79127 0.751957 7.76407C0.791397 7.73143 0.826757 7.69607 0.871637 7.67023L13.9426 0.145345C14.1081 0.0501184 14.2957 0 14.4866 0C14.6775 0 14.8651 0.0501184 15.0306 0.145345L28.1002 7.67023H28.1029C28.1464 7.69743 28.1832 7.73143 28.2226 7.76271C28.258 7.78991 28.2974 7.81439 28.3287 7.84431C28.3668 7.88375 28.394 7.92863 28.4266 7.97215C28.4497 8.00479 28.481 8.03335 28.5 8.06871C28.5313 8.12311 28.549 8.18023 28.5708 8.23735C28.5816 8.26863 28.6007 8.29719 28.6088 8.32983C28.6339 8.42251 28.6467 8.51806 28.6469 8.61407V36.5743L39.5378 30.3033V16.0097C39.5378 15.9145 39.5514 15.818 39.5759 15.7269C39.5854 15.6942 39.6031 15.6657 39.614 15.6344C39.6357 15.5773 39.6548 15.5188 39.6847 15.4657C39.7051 15.4304 39.735 15.4018 39.7581 15.3692C39.7908 15.3257 39.818 15.2808 39.856 15.2427C39.8873 15.2114 39.9268 15.1883 39.9621 15.1611C40.0029 15.1285 40.0383 15.0931 40.0818 15.0673L53.1541 7.54239C53.3196 7.44703 53.5072 7.39683 53.6981 7.39683C53.8891 7.39683 54.0767 7.44703 54.2421 7.54239L67.3117 15.0673C67.358 15.0945 67.3933 15.1285 67.4341 15.1597C67.4681 15.1869 67.5076 15.2114 67.5388 15.2413C67.5769 15.2808 67.6041 15.3257 67.6368 15.3692C67.6612 15.4018 67.6912 15.4304 67.7102 15.4657C67.7415 15.5188 67.7592 15.5773 67.7809 15.6344C67.7932 15.6657 67.8108 15.6942 67.819 15.7269ZM65.6784 30.3033V17.8947L61.1047 20.5277L54.7861 24.1657V36.5743L65.6797 30.3033H65.6784ZM52.6088 52.7501V40.3333L46.3936 43.8829L28.6456 54.0122V66.546L52.6088 52.7501ZM2.50636 10.4977V52.7501L26.4668 66.5446V54.0136L13.9494 46.9293L13.9453 46.9266L13.9399 46.9239C13.8977 46.8994 13.8624 46.8641 13.8229 46.8341C13.7889 46.8069 13.7495 46.7852 13.7196 46.7553L13.7168 46.7512C13.6815 46.7172 13.657 46.675 13.6271 46.6369C13.5999 46.6002 13.5672 46.569 13.5455 46.5309L13.5441 46.5268C13.5196 46.486 13.5047 46.437 13.487 46.3908C13.4693 46.35 13.4462 46.3119 13.4353 46.2684C13.4217 46.2167 13.419 46.1609 13.4136 46.1079C13.4081 46.0671 13.3972 46.0263 13.3972 45.9855V45.9828V16.7686L7.08004 13.1293L2.50636 10.4977ZM14.488 2.34583L3.59844 8.61407L14.4852 14.8823L25.3734 8.61271L14.4852 2.34583H14.488ZM20.151 41.4649L26.4682 37.8282V10.4977L21.8945 13.1306L15.576 16.7686V44.0992L20.151 41.4649ZM53.6981 9.74287L42.81 16.0111L53.6981 22.2793L64.5849 16.0097L53.6981 9.74287ZM52.6088 24.1657L46.2902 20.5277L41.7165 17.8947V30.3033L48.0337 33.94L52.6088 36.5743V24.1657ZM27.5548 52.1286L43.5253 43.0112L51.5085 38.4552L40.6285 32.191L28.1016 39.4031L16.6844 45.976L27.5548 52.1286Z" fill="#AA0000"/>
    </g>
    <defs>
        <clipPath id="clip0_2104_1098">
            <rect width="68" height="70.72" fill="white" transform="translate(0.327637)"/>
        </clipPath>
    </defs>
</svg>
