<svg width="115" height="60" viewBox="0 0 115 60" fill="none" xmlns="http://www.w3.org/2000/svg">
  <g clip-path="url(#clip0_31_1018)">
    <path
      d="M0 54.5026H3.7886V39.4834L9.65371 52.5814C10.3455 54.1603 11.2934 54.7276 13.1509 54.7276C15.0084 54.7276 15.9192 54.1665 16.6121 52.5814L22.4778 39.4834V54.5082H26.2669V39.5082C26.2669 38.0449 25.683 37.3372 24.4813 36.9718C21.6035 36.0695 19.6724 36.85 18.7987 38.8011L13.0431 51.7276L7.46826 38.7955C6.63047 36.8443 4.66345 36.0639 1.78564 36.9661C0.582861 37.3321 0 38.0398 0 39.5026V54.5026ZM29.416 42.2737H33.2034V50.5518C33.1681 51.0018 33.3472 52.0575 35.4226 52.0896C36.4816 52.1065 43.595 52.0896 43.6613 52.0896V42.2325H47.4572C47.474 42.2325 47.4532 55.6727 47.4538 55.7302C47.4746 59.0449 43.358 59.765 41.4612 59.8208H29.4985V57.2607L41.4825 57.2601C43.9207 57.0007 43.6332 55.7844 43.6332 55.3744V54.3763H35.5809C31.8344 54.3424 29.4491 52.6998 29.4193 50.8107C29.4165 50.6415 29.5002 42.3549 29.4171 42.2731L29.416 42.2737Z"
      fill="#AA0000" />
    <path
      d="M50.3779 54.5026H61.2704C62.545 54.5026 63.7843 54.2348 64.7687 53.7707C66.4083 53.015 67.2096 51.9904 67.2096 50.6489V47.8688C67.2096 46.7709 66.2988 45.7468 64.5143 45.0639C63.567 44.6974 62.4013 44.5028 61.272 44.5028H56.6816C55.152 44.5028 54.4231 44.0393 54.2412 43.0152C54.2047 42.8934 54.2047 42.7897 54.2047 42.6735V40.9423C54.2047 40.8447 54.2047 40.7466 54.2412 40.6248C54.4231 39.8444 54.8241 39.6244 56.1717 39.497C56.2812 39.497 56.4267 39.4722 56.5367 39.4722H67.3562V36.9363H56.7187C55.1885 36.9363 54.3872 37.0338 53.6583 37.2532C51.3977 37.9609 50.4139 39.0887 50.4139 41.0398V43.2594C50.4139 44.9669 52.3455 46.4303 55.5866 46.7714C55.9516 46.7957 56.3155 46.8199 56.6793 46.8199H60.6139C60.7599 46.8199 60.9059 46.8199 61.0149 46.8447C62.2165 46.9423 62.7275 47.1617 63.0914 47.6004C63.316 47.8259 63.3834 48.0402 63.3834 48.2771V50.4966C63.3834 50.765 63.2014 51.1068 62.837 51.3989C62.5091 51.6921 61.9627 51.8867 61.2339 51.9357C61.0879 51.9357 60.9789 51.96 60.8335 51.96H50.3779V54.4964V54.5026ZM90.8436 50.0883C90.8436 52.6981 92.7741 54.1615 96.6722 54.4541C97.0358 54.4824 97.4002 54.4986 97.7649 54.5026H107.638V51.9662H97.6919C95.4699 51.9662 94.6316 51.4051 94.6316 50.0635V36.9414H90.843V50.0872L90.8436 50.0883ZM69.6264 50.2203V41.178C69.6264 38.8806 71.2323 37.4872 74.4083 37.0474C74.747 36.9988 75.0887 36.9743 75.4309 36.9741H82.6223C82.9766 36.9743 83.3304 36.9988 83.6813 37.0474C86.8573 37.4872 88.4633 38.8801 88.4633 41.178V50.2203C88.4633 52.084 87.781 53.0816 86.2087 53.7318L89.9406 57.1152H85.5416L82.5223 54.378L79.4828 54.5714H75.4309C74.7374 54.5714 74.0074 54.4733 73.2039 54.2534C70.7893 53.5936 69.627 52.3226 69.627 50.2203H69.6264ZM73.716 49.9947C73.716 50.1171 73.7525 50.2389 73.789 50.3861C74.0136 51.4372 74.9934 52.0237 76.4843 52.0237H79.9264L76.765 49.1573H81.164L83.9155 51.6571C84.4237 51.3853 84.7578 50.9692 84.8701 50.4351C84.9066 50.3133 84.9066 50.191 84.9066 50.0686V41.3985C84.9066 41.3009 84.9066 41.1729 84.8701 41.0562C84.6455 40.0789 83.665 39.5167 82.2051 39.5167H76.491C74.8064 39.5167 73.7171 40.2498 73.7171 41.3985V50.0015L73.716 49.9947Z"
      fill="#AA0000" />
    <path
      d="M110.97 32.7334C108.642 32.6703 106.862 32.8874 105.342 33.5313C104.909 33.7146 104.22 33.7191 104.149 34.2633C104.387 34.5131 104.425 34.8864 104.613 35.1938C104.976 35.7842 105.59 36.5753 106.136 36.9892C106.734 37.4421 107.349 37.927 107.991 38.3201C109.131 39.0182 110.403 39.4169 111.5 40.1156C112.147 40.5272 112.79 41.046 113.421 41.5118C113.732 41.7419 113.943 42.0994 114.347 42.2432V42.1766C114.134 41.9043 114.079 41.5298 113.884 41.2462L113.023 40.3817C112.181 39.2539 111.113 38.2744 109.977 37.455C109.071 36.802 107.043 35.9201 106.666 34.861L106.599 34.7945C107.242 34.7212 107.994 34.4883 108.587 34.3293C109.583 34.0614 110.473 34.1302 111.501 33.8641L112.892 33.4648V33.1986C112.372 32.6629 112.002 31.9541 111.435 31.4697C109.953 30.2009 108.334 28.9349 106.668 27.8776C105.744 27.2911 104.601 26.911 103.622 26.4142C103.292 26.2473 102.713 26.1605 102.496 25.8819C101.981 25.2233 101.701 24.3876 101.304 23.6263C100.473 22.0191 99.6567 20.2631 98.9199 18.5719C98.4174 17.4188 98.0889 16.2813 97.4634 15.2466C94.4564 10.2819 91.2192 7.28529 86.2059 4.34056C85.139 3.71462 83.8548 3.4665 82.4971 3.14338L80.3116 3.01029C79.8669 2.8242 79.4042 2.27721 78.9864 2.01217C77.3254 0.957661 73.0652 -1.3335 71.8349 1.67383C71.0583 3.57589 72.9955 5.43172 73.689 6.39601C74.1753 7.0727 74.7986 7.83003 75.1456 8.59074C75.3742 9.09037 75.414 9.59168 75.6094 10.1206C76.0907 11.4176 76.5096 12.8404 77.1323 14.0443C77.4467 14.6533 77.7938 15.2951 78.1919 15.8398C78.4361 16.1742 78.8545 16.3214 78.9202 16.8379C78.5114 17.4131 78.4878 18.3041 78.2576 19.0327C77.2227 22.3101 77.6129 26.3832 79.1184 28.8092C79.5805 29.5535 80.6682 31.1505 82.1647 30.5381C83.473 30.0024 83.1754 28.3445 83.5556 26.8806C83.6398 26.5479 83.5881 26.3054 83.7543 26.0827V26.1492L84.9464 28.543C85.828 29.9697 87.3947 31.4612 88.721 32.4678C89.4089 32.9894 89.9563 33.8917 90.8402 34.1968V34.1302H90.7739C90.6015 33.8595 90.332 33.7485 90.1113 33.5325C89.593 33.0221 89.0164 32.3877 88.5879 31.8035C87.3806 30.158 86.3149 28.358 85.3434 26.483C84.8796 25.5881 84.4759 24.6007 84.0856 23.69C83.9351 23.3387 83.9368 22.808 83.6224 22.6259C83.1939 23.2936 82.5628 23.8327 82.2315 24.621C81.7014 25.8808 81.6329 27.4169 81.4369 29.0105C81.3207 29.0522 81.3723 29.0235 81.3044 29.077C80.3824 28.8537 80.0578 27.9001 79.7153 27.0819C78.8483 25.0124 78.6877 21.6819 79.4503 19.3011C79.6468 18.6853 80.5396 16.7443 80.1785 16.1753C80.0062 15.6075 79.4373 15.2731 79.119 14.8445C78.7259 14.3088 78.3317 13.6016 78.0594 12.9825C77.3496 11.3697 77.0183 9.55954 76.2715 7.92815C75.9143 7.14883 75.3113 6.36048 74.8149 5.67251C74.2657 4.90559 73.6508 4.33943 73.2258 3.41687C73.0742 3.08698 72.8686 2.55973 73.0932 2.21969C73.1147 2.12199 73.1635 2.03249 73.234 1.96175C73.3044 1.89101 73.3935 1.84198 73.4908 1.82044C73.8749 1.52326 74.9451 1.91913 75.345 2.08661C76.4062 2.52984 77.2934 2.95165 78.193 3.54995C78.6254 3.83191 79.0617 4.39356 79.5833 4.54807H80.1785C81.1107 4.76349 82.1551 4.61574 83.0255 4.88078C84.5652 5.35052 85.9443 6.08191 87.1976 6.87589C91.0148 9.2962 94.1352 12.7417 96.2701 16.8571C96.6138 17.5186 96.762 18.1507 97.0647 18.8522C97.675 20.262 98.4438 21.7242 99.0513 23.108C99.6578 24.4896 100.247 25.8825 101.104 27.0317C101.555 27.6351 103.294 27.9599 104.084 28.2949C104.638 28.53 105.546 28.7753 106.071 29.0928C107.073 29.7001 108.045 30.4236 108.985 31.0891C109.455 31.4218 110.9 32.1509 110.972 32.7515L110.97 32.7334Z"
      fill="#AA0000" />
    <path fill-rule="evenodd" clip-rule="evenodd"
      d="M81.3703 7.39566C80.8846 7.38664 80.5415 7.44867 80.1782 7.52874V7.59528H80.2445C80.4758 8.07348 80.8846 8.38081 81.171 8.79246L81.8336 10.1887L81.8998 10.1222C82.3098 9.83175 82.4979 9.36765 82.4951 8.65882C82.3305 8.48513 82.3064 8.26746 82.1638 8.05994C81.9745 7.78363 81.6022 7.62686 81.3692 7.39453L81.3703 7.39566Z"
      fill="#AA0000" />
    <path fill-rule="evenodd" clip-rule="evenodd"
      d="M109.416 51.8941C109.416 53.5689 110.733 54.6978 112.207 54.6978C113.681 54.6978 114.999 53.5689 114.999 51.8941C114.999 50.2193 113.681 49.0903 112.207 49.0903C110.733 49.0903 109.416 50.2193 109.416 51.8941ZM114.374 51.8941C114.374 53.1651 113.406 54.1148 112.206 54.1148C110.993 54.1148 110.039 53.1651 110.039 51.8941C110.039 50.623 110.992 49.6734 112.206 49.6734C113.405 49.6734 114.374 50.623 114.374 51.8941ZM112.959 53.4945H113.584L112.668 52.0892C113.16 52.0368 113.531 51.7971 113.531 51.214C113.531 50.5633 113.122 50.2948 112.333 50.2948H111.089V53.495H111.626V52.1118H112.124L112.958 53.495L112.959 53.4945ZM111.626 51.6618V50.7426H112.243C112.563 50.7426 112.951 50.8024 112.951 51.1768C112.951 51.6251 112.601 51.6629 112.198 51.6629H111.626V51.6618Z"
      fill="#AA0000" />
  </g>
  <defs>
    <clipPath id="clip0_31_1018">
      <rect width="115" height="60" fill="white" />
    </clipPath>
  </defs>
</svg>

