<svg width="35" height="41" viewBox="0 0 35 41" fill="none" xmlns="http://www.w3.org/2000/svg">
  <path
    d="M17.4629 40.442C16.9461 40.442 16.4217 40.2993 15.9666 40.0298L11.2078 37.1371C10.4982 36.7249 10.8453 36.5823 11.0767 36.503C12.0254 36.1622 12.2182 36.0909 13.2286 35.4965C13.3365 35.4331 13.4754 35.4569 13.5833 35.5282L17.2392 37.7552C17.3703 37.8345 17.5554 37.8345 17.6788 37.7552L31.9244 29.3068C32.0555 29.2275 32.1403 29.069 32.1403 28.9105V12.0135C32.1403 11.8471 32.0555 11.6965 31.9167 11.6093L17.6788 3.16878C17.5477 3.08953 17.3703 3.08953 17.2392 3.16878L3.0091 11.6173C2.87027 11.6965 2.78543 11.855 2.78543 12.0215V28.9105C2.78543 29.069 2.87027 29.2275 3.0091 29.2988L6.91178 31.6131C9.03279 32.6988 10.3285 31.4228 10.3285 30.131V13.456C10.3285 13.2182 10.5137 13.0359 10.745 13.0359H12.5498C12.7735 13.0359 12.9663 13.2182 12.9663 13.456V30.1389C12.9663 33.0396 11.4238 34.704 8.74742 34.704C7.92215 34.704 7.27428 34.704 5.46948 33.7846L1.73649 31.5734C0.810951 31.0266 0.240204 30.0042 0.240204 28.9026V12.0135C0.240204 10.9198 0.810951 9.88953 1.73649 9.34267L15.9666 0.894192C16.869 0.371115 18.0645 0.371115 18.9592 0.894192L33.2047 9.3506C34.1302 9.89745 34.701 10.9198 34.701 12.0215V28.9105C34.701 30.0042 34.1302 31.0266 33.2047 31.5814L18.9592 40.0298C18.5041 40.2993 17.9874 40.442 17.4629 40.442ZM28.9627 23.7907C28.9627 20.6284 26.8802 19.7884 22.5071 19.1939C18.0799 18.5916 17.6326 18.2825 17.6326 17.2205C17.6326 16.3408 18.0105 15.1678 21.2884 15.1678C24.2116 15.1678 25.2914 15.8177 25.7387 17.8466C25.7773 18.0368 25.947 18.1795 26.1398 18.1795H27.9909C28.1065 18.1795 28.2145 18.1319 28.2917 18.0448C28.3688 17.9576 28.4073 17.8387 28.3996 17.7198C28.1143 14.2247 25.8544 12.6 21.2884 12.6C17.2238 12.6 14.802 14.3595 14.802 17.3156C14.802 20.5175 17.2161 21.4051 21.111 21.8014C25.7773 22.269 26.1398 22.9744 26.1398 23.9175C26.1398 25.5501 24.8595 26.2476 21.8592 26.2476C18.0876 26.2476 17.2624 25.2727 16.9847 23.3469C16.9538 23.1408 16.7842 22.9902 16.5759 22.9902H14.7326C14.5012 22.9902 14.3238 23.1804 14.3238 23.4103C14.3238 25.8751 15.6272 28.8154 21.8669 28.8154C26.3712 28.8075 28.9627 26.9767 28.9627 23.7907Z"
    fill="#AA0000" />
</svg>
