<svg width="50" height="41" viewBox="0 0 50 41" fill="none" xmlns="http://www.w3.org/2000/svg">
  <g clip-path="url(#clip0_15_102)">
    <path
      d="M24.8725 8.65371C37.9875 8.65371 48.0724 14.2859 48.0724 20.4719C48.0724 26.658 37.9798 32.2901 24.8725 32.2901C11.7576 32.2901 1.67273 26.658 1.67273 20.4719C1.67273 14.2859 11.7653 8.65371 24.8725 8.65371ZM24.8725 7.34318C11.3521 7.34318 0.387253 13.2172 0.387253 20.4719C0.387253 27.7267 11.3521 33.6007 24.8725 33.6007C38.393 33.6007 49.3578 27.7267 49.3578 20.4719C49.3578 13.2172 38.393 7.34318 24.8725 7.34318ZM17.0832 19.4188C16.4787 22.5781 14.3439 22.2505 11.7194 22.2505L12.7676 16.7431C15.6753 16.7431 17.6494 16.4233 17.0832 19.4188ZM7.83996 27.8281H10.6481L11.3138 24.3333C14.4586 24.3333 16.4098 24.5673 18.2156 22.8434C20.2127 20.9712 20.733 17.6402 19.3098 15.9709C18.5676 15.0972 17.3739 14.6681 15.7518 14.6681H10.3421L7.83996 27.8281ZM22.0491 11.1656H24.8419L24.1762 14.6603C26.5865 14.6603 28.8208 14.4809 29.8997 15.495C31.0321 16.5559 30.4889 17.9133 29.2646 24.3177H26.4335C27.6118 18.1239 27.8337 17.609 27.4052 17.141C26.9921 16.6885 26.0509 16.7821 23.7784 16.7821L22.3398 24.3177H19.547L22.0491 11.1656ZM39.0281 19.4188C38.416 22.6249 36.22 22.2505 33.6643 22.2505L34.7126 16.7431C37.6355 16.7431 39.5943 16.4233 39.0281 19.4188ZM29.7849 27.8281H32.6007L33.2664 24.3333C36.5719 24.3333 38.4007 24.5283 40.1682 22.8434C42.1653 20.9712 42.6856 17.6402 41.2624 15.9709C40.5202 15.0972 39.3265 14.6681 37.7044 14.6681H32.2947L29.7849 27.8281Z"
      fill="#AA0000" />
  </g>
  <defs>
    <clipPath id="clip0_15_102">
      <rect width="48.9706" height="39.9401" fill="white" transform="translate(0.387253 0.501884)" />
    </clipPath>
  </defs>
</svg>

