<svg width="66" height="66" viewBox="0 0 66 66" fill="none" xmlns="http://www.w3.org/2000/svg">
  <g clip-path="url(#clip0_15_114)">
    <path
      d="M53.4783 23.1517C52.7878 22.9215 52.0972 22.7041 51.4067 22.4995C51.5218 22.0264 51.6241 21.5532 51.7264 21.0801C53.2993 13.4586 52.2635 7.3333 48.7724 5.31284C45.4093 3.3819 39.9234 5.38957 34.3735 10.2233C33.8236 10.6965 33.2865 11.1952 32.775 11.6939C32.4298 11.3614 32.0717 11.0289 31.7137 10.7092C25.8953 5.54302 20.0641 3.36911 16.573 5.40236C13.2227 7.34609 12.2252 13.1133 13.6319 20.3256C13.7725 21.0417 13.926 21.745 14.105 22.4611C13.2866 22.6913 12.481 22.9471 11.7265 23.2156C4.89787 25.5813 0.000183105 29.3153 0.000183105 33.1772C0.000183105 37.167 5.21756 41.1695 12.3147 43.5992C12.8902 43.791 13.4656 43.9828 14.0539 44.1491C13.862 44.9163 13.6958 45.6708 13.5423 46.4508C12.1996 53.548 13.2482 59.1746 16.5986 61.1055C20.0513 63.1004 25.8569 61.0544 31.5091 56.1055C31.9566 55.7091 32.4042 55.2999 32.8518 54.8651C33.4144 55.415 34.0027 55.9393 34.5909 56.4508C40.064 61.1567 45.4732 63.0621 48.8108 61.1311C52.2635 59.1362 53.3888 53.0877 51.931 45.7219C51.8159 45.1593 51.688 44.5838 51.5474 43.9956C51.9566 43.8805 52.353 43.7526 52.7494 43.6248C60.1279 41.1823 65.4732 37.2309 65.4732 33.1772C65.4732 29.3026 60.4348 25.543 53.4783 23.1517ZM36.1766 12.2949C40.9336 8.15171 45.3709 6.52767 47.3914 7.69135C49.5525 8.93176 50.3837 13.9445 49.0282 20.5302C48.9387 20.965 48.8492 21.387 48.7341 21.809C45.8952 21.1696 43.018 20.7092 40.128 20.4535C38.4656 18.075 36.6497 15.7988 34.6804 13.6632C35.1791 13.1901 35.6651 12.7425 36.1766 12.2949ZM21.3812 39.814C22.0334 40.9266 22.6983 42.0391 23.4017 43.126C21.4068 42.9087 19.4247 42.589 17.4682 42.167C18.0308 40.3255 18.7341 38.4202 19.5526 36.4764C20.1408 37.6018 20.7418 38.7143 21.3812 39.814ZM17.5065 24.4304C19.348 24.0212 21.3045 23.6888 23.3377 23.433C22.66 24.4944 21.995 25.5813 21.3684 26.6811C20.7418 27.768 20.128 28.8806 19.5526 30.0059C18.7469 28.1005 18.0692 26.2335 17.5065 24.4304ZM21.0104 33.2412C21.8543 31.4765 22.7751 29.7501 23.7469 28.0494C24.7188 26.3486 25.7674 24.699 26.8671 23.0749C28.7853 22.9343 30.7418 22.8576 32.7367 22.8576C34.7316 22.8576 36.7009 22.9343 38.6062 23.0749C39.6932 24.6862 40.729 26.3358 41.7136 28.0238C42.6983 29.7118 43.619 31.4381 44.4886 33.19C43.6318 34.9547 42.7111 36.6938 41.7264 38.4074C40.7546 40.1082 39.7188 41.7578 38.6318 43.3946C36.7264 43.5353 34.7443 43.5992 32.7367 43.5992C30.729 43.5992 28.7853 43.5353 26.9055 43.4202C25.793 41.7961 24.7444 40.1337 23.7597 38.433C22.7751 36.7322 21.8671 35.0059 21.0104 33.2412ZM44.1049 39.7885C44.7571 38.6631 45.3709 37.525 45.9719 36.3741C46.7903 38.2284 47.5065 40.1082 48.133 42.0391C46.151 42.4867 44.1433 42.8319 42.1228 43.0621C42.8134 41.9879 43.4655 40.8882 44.1049 39.7885ZM45.9464 30.0059C45.3453 28.8806 44.7315 27.7552 44.0921 26.6555C43.4655 25.5685 42.8134 24.4944 42.1356 23.433C44.1944 23.6888 46.1637 24.034 48.0052 24.456C47.4169 26.3486 46.7264 28.19 45.9464 30.0059ZM32.7622 15.6197C34.105 17.0775 35.3709 18.612 36.5474 20.1977C34.0154 20.0826 31.4707 20.0826 28.9387 20.1977C30.1919 18.5481 31.4835 17.0136 32.7622 15.6197ZM17.9285 7.78087C20.0769 6.52767 24.8467 8.31795 29.8722 12.7681C30.1919 13.0494 30.5116 13.3563 30.8441 13.6632C28.862 15.7988 27.0334 18.075 25.3582 20.4535C22.4682 20.7092 19.6037 21.1568 16.7648 21.7834C16.5986 21.1312 16.4579 20.4663 16.3173 19.8013C15.1152 13.6121 15.9081 8.94455 17.9285 7.78087ZM14.7955 41.4892C14.2585 41.3358 13.7342 41.1695 13.2099 40.9905C10.4861 40.1337 7.39147 38.7782 5.15362 37.0007C3.86207 36.1056 2.9925 34.7245 2.74954 33.1772C2.74954 30.8371 6.79045 27.8448 12.6216 25.8115C13.3505 25.5558 14.0922 25.3256 14.8339 25.1082C15.7035 27.8831 16.7521 30.6069 17.9669 33.2412C16.7393 35.9138 15.6779 38.6759 14.7955 41.4892ZM29.706 54.0212C27.596 55.9521 25.1536 57.4866 22.4937 58.5352C21.0743 59.213 19.4375 59.2769 17.9797 58.7015C15.9464 57.525 15.1024 53.0109 16.2533 46.9368C16.394 46.2207 16.5475 45.5046 16.7265 44.8012C19.5909 45.415 22.4809 45.837 25.4093 46.0544C27.0973 48.4457 28.9515 50.7347 30.9336 52.8831C30.5244 53.2795 30.1152 53.6631 29.706 54.0212ZM32.839 50.9137C31.5346 49.5071 30.2303 47.947 28.9643 46.2718C30.1919 46.323 31.4579 46.3485 32.7367 46.3485C34.0538 46.3485 35.3454 46.323 36.6241 46.259C35.4477 47.8831 34.1817 49.4304 32.839 50.9137ZM49.5525 54.7501C49.4374 56.3102 48.6701 57.768 47.4425 58.7526C45.4093 59.9291 41.0742 58.3945 36.394 54.3792C35.8569 53.9189 35.3198 53.4201 34.7699 52.9086C36.7264 50.7475 38.5295 48.4585 40.1663 46.0544C43.0947 45.8115 46.0103 45.3639 48.8875 44.7117C49.0154 45.236 49.1305 45.7603 49.2328 46.2718C49.8594 49.034 49.9617 51.9112 49.5525 54.7501ZM51.8798 41.0033C51.5218 41.1184 51.1637 41.2335 50.7929 41.3358C49.8978 38.548 48.798 35.8243 47.532 33.1772C48.7597 30.5685 49.7955 27.8831 50.665 25.1338C51.33 25.3256 51.9694 25.5302 52.5832 25.7348C58.5422 27.7808 62.7238 30.8243 62.7238 33.1516C62.7238 35.658 58.2609 38.8933 51.8798 41.0033ZM32.7367 39.0851C35.972 39.0851 38.5934 36.4637 38.5934 33.2284C38.5934 29.9931 35.972 27.3716 32.7367 27.3716C29.5014 27.3716 26.8799 29.9931 26.8799 33.2284C26.8799 36.4637 29.5014 39.0851 32.7367 39.0851Z"
      fill="#AA0000" />
  </g>
  <defs>
    <clipPath id="clip0_15_114">
      <rect width="65.473" height="65.473" fill="white" transform="translate(0.000183105 0.491886)" />
    </clipPath>
  </defs>
</svg>

