<svg width="71" height="57" viewBox="0 0 71 57" fill="none" xmlns="http://www.w3.org/2000/svg">
  <g clip-path="url(#clip0_15_141)">
    <path
      d="M33.1211 41.5822C33.0552 41.7008 33.0882 41.6481 33.1211 41.5822V41.5822ZM60.4584 32.0345C58.2512 32.0339 56.0734 32.5408 54.0932 33.516C53.4458 32.2101 52.7763 31.0687 52.6666 30.2127C52.5349 29.214 52.3922 28.6214 52.5458 27.4362C52.6995 26.2509 53.3909 24.5718 53.3799 24.4511C53.3689 24.3304 53.2263 23.7268 51.8106 23.7158C50.3949 23.7049 49.1767 23.9902 49.0351 24.3633C48.7851 25.0452 48.5906 25.7462 48.4535 26.4594C48.2011 27.7435 45.6232 32.3308 44.1636 34.7232C43.6807 33.7904 43.2746 32.9673 43.1868 32.3088C43.0551 31.3102 42.9125 30.7175 43.0661 29.5323C43.2198 28.347 43.9112 26.668 43.9002 26.5472C43.8892 26.4265 43.7465 25.8229 42.3319 25.812C40.9173 25.801 39.6981 26.0863 39.5554 26.4594C39.4127 26.8326 39.2591 27.7105 38.9737 28.5556C38.6884 29.4006 35.2545 37.0388 34.3557 39.0252C33.8948 40.0348 33.4997 40.847 33.2144 41.3957C33.1705 41.4835 33.1375 41.5383 33.1156 41.5822C33.1485 41.5274 33.1705 41.4725 33.1705 41.4944C32.929 41.9663 32.7864 42.2297 32.7864 42.2297V42.2407C32.5998 42.5919 32.3913 42.9101 32.2925 42.9101C32.2267 42.9101 32.084 41.9883 32.3254 40.7262C32.8412 38.0704 34.0594 33.944 34.0484 33.8013C34.0374 33.7245 34.2789 33.0112 33.2473 32.6271C32.2486 32.2649 31.8864 32.8685 31.7987 32.8685C31.7109 32.8685 31.645 33.088 31.645 33.088C31.645 33.088 32.7534 28.4348 29.5171 28.4348C27.4978 28.4348 24.6883 30.6517 23.3077 32.66C22.4407 33.1319 20.5641 34.1525 18.5887 35.239C17.8315 35.656 17.0523 36.084 16.317 36.4901C16.2621 36.4352 16.2182 36.3803 16.1634 36.3255C12.2356 32.1332 4.98039 29.1701 5.29097 23.5402C5.40071 21.488 6.11405 16.0996 19.2395 9.55879C29.9945 4.20326 38.5984 5.67383 40.069 8.94422C42.198 13.6084 35.4718 22.2892 24.2987 23.5402C20.0417 24.0121 17.804 22.366 17.2443 21.7514C16.6627 21.1039 16.5749 21.071 16.3554 21.1917C15.9933 21.3892 16.2237 21.9599 16.3554 22.3001C16.6846 23.1671 18.0564 24.7035 20.3929 25.4717C22.4451 26.1412 27.4363 26.5143 33.4744 24.1768C40.2545 21.5648 45.5354 14.2888 43.9847 8.19796C42.4164 2.01056 32.1553 -0.0197107 22.4539 3.42627C16.6715 5.47849 10.4149 8.70498 5.91542 12.9082C0.571957 17.9125 -0.282953 22.2694 0.0682292 24.0912C1.31822 30.5551 10.2273 34.7693 13.7973 37.886C13.6217 37.9848 13.4571 38.0726 13.3034 38.1604C11.5157 39.0493 4.72359 42.6051 3.02365 46.3583C1.10312 50.6164 3.34191 53.6673 4.81139 54.0843C9.39761 55.3574 14.0936 53.0637 16.6199 49.2995C19.1462 45.5352 18.8367 40.6187 17.6734 38.3799C17.6625 38.347 17.6405 38.325 17.6295 38.2921C18.0905 38.0177 18.5624 37.7434 19.0343 37.469C19.9441 36.9313 20.833 36.4374 21.6122 36.0094C21.1732 37.1946 20.8549 38.6213 20.6903 40.6845C20.4928 43.0989 21.4915 46.2266 22.7864 47.4558C23.3571 47.9935 24.0474 48.0045 24.4754 48.0045C25.9899 48.0045 26.6703 46.7534 27.4264 45.2609C28.3593 43.4391 29.1823 41.321 29.1823 41.321C29.1823 41.321 28.1507 47.0497 30.9712 47.0497C32.0017 47.0497 33.0333 45.7218 33.4953 45.0414V45.0524C33.4953 45.0524 33.5173 45.0085 33.5721 44.9207C33.6819 44.756 33.7367 44.6573 33.7367 44.6573V44.6244C34.1538 43.911 35.0647 42.2758 36.4354 39.5761C38.2132 36.0862 39.9132 31.7294 39.9132 31.7294C40.0774 32.6871 40.3047 33.633 40.5936 34.5608C40.9009 35.6034 41.5484 36.7447 42.0642 37.8531C41.6471 38.4238 41.3947 38.753 41.3947 38.753C41.3955 38.7614 41.3994 38.7693 41.4057 38.775C41.0765 39.214 40.7033 39.6859 40.3192 40.1468C38.9156 41.8149 37.2464 43.7244 37.0269 44.2732C36.7635 44.9207 36.8293 45.4035 37.3342 45.7767C37.7073 46.062 38.3658 46.1059 39.0561 46.051C40.3181 45.9632 41.2071 45.656 41.6351 45.4584C42.4241 45.1755 43.1698 44.7839 43.8508 44.2951C45.2226 43.2855 46.0567 41.8368 45.9798 39.9273C45.9359 38.8737 45.5957 37.8202 45.1787 36.8325C45.2994 36.6569 45.4311 36.4703 45.5518 36.2838C47.7171 33.11 49.3962 29.6311 49.3962 29.6311C49.5604 30.5888 49.7877 31.5347 50.0766 32.4625C50.34 33.3514 50.8547 34.3281 51.3266 35.2829C49.2864 36.94 48.0244 38.8606 47.5854 40.1226C46.7733 42.4602 47.4098 43.5137 48.606 43.7552C49.1438 43.8649 49.912 43.6125 50.4827 43.3711C51.3302 43.0888 52.1293 42.6779 52.852 42.1529C54.2238 41.1433 55.5507 39.7276 55.4629 37.807C55.4299 36.94 55.1885 36.0731 54.8702 35.239C56.5932 34.5147 58.8309 34.1196 61.6843 34.4488C67.7948 35.1622 68.9911 38.9813 68.7606 40.5726C68.5301 42.1639 67.2461 43.0528 66.8181 43.3162C66.3901 43.5796 66.2584 43.6784 66.2913 43.8759C66.3462 44.1612 66.5438 44.1503 66.9059 44.0844C67.4107 43.9966 70.1094 42.7894 70.2301 39.8373C70.4057 36.106 66.8181 32.0015 60.4628 32.0345H60.4584ZM13.3561 47.9145C11.3379 50.1204 8.50648 50.9544 7.28942 50.2521C5.99333 49.4948 6.50913 46.2464 8.99924 43.8978C10.5137 42.4712 12.4661 41.1542 13.761 40.3421C14.0574 40.1665 14.4854 39.9031 15.0121 39.5849C15.0999 39.53 15.1438 39.5081 15.1438 39.5081C15.2426 39.4422 15.3523 39.3873 15.4621 39.3215C16.3719 42.6577 15.495 45.5989 13.366 47.9145H13.3561ZM28.1058 37.8838C27.4034 39.6068 25.9229 43.9966 25.023 43.7662C24.2548 43.5686 23.7829 40.2214 24.8694 36.9291C25.4181 35.2719 26.5814 33.2965 27.2728 32.5283C28.3801 31.2882 29.5983 30.8931 29.8836 31.387C30.2677 32.0345 28.5447 36.8083 28.1058 37.8838ZM40.2874 43.7003C39.9911 43.8539 39.7167 43.9527 39.585 43.8759C39.4863 43.821 39.7057 43.6125 39.7057 43.6125C39.7057 43.6125 41.2312 41.9773 41.8348 41.2311C42.186 40.7921 42.592 40.2763 43.0299 39.7056C43.0299 39.7605 43.0409 39.8153 43.0409 39.8812C43.0266 41.8456 41.1401 43.1735 40.2841 43.7003H40.2874ZM49.6793 41.5603C49.4598 41.4066 49.4928 40.8908 50.228 39.2886C50.5134 38.663 51.1707 37.6095 52.3132 36.5998C52.4425 36.982 52.5128 37.3817 52.5217 37.7851C52.5107 40.2543 50.7438 41.1762 49.6804 41.5603H49.6793Z"
      fill="#AA0000" />
  </g>
  <defs>
    <clipPath id="clip0_15_141">
      <rect width="70.2365" height="56.1892" fill="white" />
    </clipPath>
  </defs>
</svg>

