<svg fill="none" viewBox="0 0 77 77" xmlns="http://www.w3.org/2000/svg">
  <g clip-path="url(#b)">
    <path
      d="m9.9865 70.802-2.3802-63.423c-0.07861-2.0946 1.5275-3.8698 3.6194-4.0005l53.945-3.3716c2.1294-0.13309 3.9635 1.4852 4.0966 3.6146 5e-3 0.08023 0.0075 0.16059 0.0075 0.24097v69.11c0 2.1335-1.7295 3.8631-3.8631 3.8631-0.0578 0-0.1156-0.0013-0.1733-0.0039l-51.565-2.3159c-2.0082-0.0902-3.6117-1.7055-3.6871-3.7144z"
      fill="#a00" />
    <mask id="a" x="7" y="0" width="63" height="77" style="mask-type:luminance"
      maskUnits="userSpaceOnUse">
      <path
        d="m9.9865 70.802-2.3802-63.423c-0.07861-2.0946 1.5275-3.8698 3.6194-4.0005l53.945-3.3716c2.1294-0.13309 3.9635 1.4852 4.0966 3.6146 5e-3 0.08023 0.0075 0.16059 0.0075 0.24097v69.11c0 2.1335-1.7295 3.8631-3.8631 3.8631-0.0578 0-0.1156-0.0013-0.1733-0.0039l-51.565-2.3159c-2.0082-0.0902-3.6117-1.7055-3.6871-3.7144z"
        fill="#fff" />
    </mask>
    <g mask="url(#a)">
      <path
        d="m53.144 9.4444 0.3685-8.8624 7.4083-0.58208 0.3191 9.1394c0.0111 0.31808-0.2377 0.58493-0.5558 0.59604-0.1362 0.00476-0.2696-0.03891-0.3767-0.12324l-2.8569-2.2506-3.3825 2.5658c-0.2535 0.19239-0.615 0.14269-0.8074-0.11085-0.0809-0.10674-0.1222-0.23836-0.1166-0.37222zm-9.4746 19.516c0 1.503 10.124 0.7826 11.483-0.2731 0-10.235-5.4918-15.613-15.548-15.613-10.056 0-15.691 5.4621-15.691 13.655 0 14.27 19.257 14.543 19.257 22.326 0 2.1848-1.0699 3.4821-3.4235 3.4821-3.0669 0-4.2794-1.5663-4.1367-6.8918 0-1.1553-11.697-1.5154-12.054 0-0.9081 12.906 7.1323 16.628 16.333 16.628 8.9154 0 15.905-4.7521 15.905-13.355 0-15.294-19.542-14.884-19.542-22.462 0-3.0724 2.2823-3.4821 3.6374-3.4821 1.4265 0 3.9941 0.2515 3.7801 5.9866z"
        fill="#fff" />
    </g>
  </g>
  <defs>
    <clipPath id="b">
      <rect width="77" height="77" fill="#fff" />
    </clipPath>
  </defs>
</svg>
