<svg width="73" height="73" viewBox="0 0 73 73" fill="none" xmlns="http://www.w3.org/2000/svg">
  <g clip-path="url(#clip0_15_125)">
    <path fill-rule="evenodd" clip-rule="evenodd"
      d="M18.2495 28.9827C20.6644 19.3222 26.7032 14.4914 36.3637 14.4914C50.8551 14.4914 52.6665 25.3599 59.9122 27.1713C64.743 28.3793 68.9692 26.5679 72.5921 21.7371C70.1772 31.3976 64.1384 36.2284 54.4779 36.2284C39.9865 36.2284 38.1751 25.3599 30.9295 23.5485C26.0986 22.3405 21.8724 24.1519 18.2495 28.9827ZM0.13533 50.7198C2.55018 41.0592 8.589 36.2284 18.2495 36.2284C32.7409 36.2284 34.5523 47.0969 41.798 48.9084C46.6288 50.1163 50.8551 48.3049 54.4779 43.4741C52.063 53.1346 46.0242 57.9655 36.3637 57.9655C21.8724 57.9655 20.0609 47.0969 12.8153 45.2855C7.98443 44.0775 3.75817 45.8889 0.13533 50.7198Z"
      fill="#AA0000" />
  </g>
  <defs>
    <clipPath id="clip0_15_125">
      <rect width="72.4568" height="72.4568" fill="white"
        transform="translate(0.13533 -7.62939e-06)" />
    </clipPath>
  </defs>
</svg>

