<svg width="42" height="43" viewBox="0 0 42 43" fill="none" xmlns="http://www.w3.org/2000/svg">
  <g clip-path="url(#clip0_12_96)">
    <path
      d="M37.7059 0.644207H4.86759C2.66661 0.644207 0.882355 2.4717 0.882355 4.72602V38.3601C0.882355 40.6145 2.66661 42.442 4.86759 42.442H37.7059C39.9069 42.442 41.6912 40.6145 41.6912 38.3601V4.72602C41.6912 2.4717 39.9069 0.644207 37.7059 0.644207Z"
      fill="#AA0000" />
    <path
      d="M37.7059 0.644207H4.86759C2.66661 0.644207 0.882355 2.4717 0.882355 4.72602V38.3601C0.882355 40.6145 2.66661 42.442 4.86759 42.442H37.7059C39.9069 42.442 41.6912 40.6145 41.6912 38.3601V4.72602C41.6912 2.4717 39.9069 0.644207 37.7059 0.644207Z"
      fill="#AA0000" />
    <path fill-rule="evenodd" clip-rule="evenodd"
      d="M26.1439 33.9048V37.9916C26.7925 38.3321 27.5597 38.5875 28.4454 38.7578C29.331 38.9281 30.2645 39.0132 31.2458 39.0132C32.2022 39.0132 33.1106 38.9196 33.9714 38.7322C34.8321 38.545 35.5868 38.2363 36.2355 37.8063C36.8841 37.3764 37.3976 36.8144 37.776 36.1205C38.1544 35.4266 38.3436 34.5689 38.3436 33.5472C38.3436 32.8064 38.2355 32.1573 38.0193 31.5996C37.803 31.042 37.4912 30.546 37.0837 30.1118C36.6762 29.6776 36.1876 29.288 35.618 28.9432C35.0483 28.5983 34.4059 28.2727 33.6907 27.9662C33.1668 27.7448 32.697 27.5299 32.2812 27.3213C31.8653 27.1126 31.5119 26.8998 31.2208 26.6827C30.9298 26.4656 30.7052 26.2357 30.5473 25.9931C30.3893 25.7504 30.3102 25.4758 30.3102 25.1693C30.3102 24.8884 30.3809 24.6351 30.5223 24.4094C30.6637 24.1838 30.8633 23.9901 31.1211 23.8283C31.3789 23.6666 31.6949 23.541 32.0691 23.4516C32.4434 23.3622 32.8591 23.3175 33.3165 23.3175C33.6491 23.3175 34.0005 23.3431 34.3705 23.3941C34.7406 23.4452 35.1127 23.524 35.487 23.6304C35.8613 23.7368 36.225 23.8709 36.5785 24.0327C36.9319 24.1945 37.2583 24.3817 37.5577 24.5946V20.776C36.9507 20.5377 36.2874 20.361 35.5681 20.246C34.8488 20.1311 34.0233 20.0736 33.092 20.0736C32.1439 20.0736 31.2458 20.178 30.3976 20.3865C29.5494 20.5951 28.803 20.9208 28.1584 21.3635C27.5139 21.8063 27.0046 22.3703 26.6304 23.0557C26.2562 23.7411 26.0691 24.5605 26.0691 25.5141C26.0691 26.7316 26.4121 27.7704 27.0982 28.6303C27.7842 29.4902 28.8258 30.2182 30.2229 30.8142C30.7718 31.0441 31.2833 31.2696 31.7573 31.491C32.2313 31.7124 32.6409 31.9423 32.9859 32.1807C33.331 32.4191 33.6034 32.6788 33.803 32.9597C34.0026 33.2407 34.1024 33.5599 34.1024 33.9176C34.1024 34.1815 34.04 34.4263 33.9153 34.6519C33.7905 34.8775 33.6013 35.0733 33.3477 35.2394C33.0941 35.4054 32.778 35.5352 32.3997 35.6288C32.0212 35.7226 31.5785 35.7693 31.0712 35.7693C30.2063 35.7693 29.3498 35.614 28.5015 35.3032C27.6533 34.9925 26.8674 34.5263 26.1439 33.9048ZM19.436 23.8356H24.5547V20.4818H10.2875V23.8356H15.3811V38.7683H19.436V23.8356Z"
      fill="white" />
  </g>
  <defs>
    <clipPath id="clip0_12_96">
      <rect width="40.8088" height="41.7978" fill="white" transform="translate(0.882355 0.644207)" />
    </clipPath>
  </defs>
</svg>

